<svg xmlns="http://www.w3.org/2000/svg" viewBox="0 0 500 500"><g id="freepik--background-complete--inject-32"><rect y="382.4" width="500" height="0.25" style="fill:#ebebeb"></rect><rect x="52.46" y="391.92" width="33.12" height="0.25" style="fill:#ebebeb"></rect><rect x="171.14" y="389.21" width="46.75" height="0.25" style="fill:#ebebeb"></rect><rect x="112.8" y="399.65" width="19.19" height="0.25" style="fill:#ebebeb"></rect><rect x="312.33" y="395.31" width="30.21" height="0.25" style="fill:#ebebeb"></rect><rect x="351.44" y="395.31" width="19.32" height="0.25" style="fill:#ebebeb"></rect><rect x="391.35" y="399.53" width="58.56" height="0.25" style="fill:#ebebeb"></rect><path d="M237,337.8H43.91a5.71,5.71,0,0,1-5.7-5.71V60.66A5.71,5.71,0,0,1,43.91,55H237a5.71,5.71,0,0,1,5.71,5.71V332.09A5.71,5.71,0,0,1,237,337.8ZM43.91,55.2a5.46,5.46,0,0,0-5.45,5.46V332.09a5.46,5.46,0,0,0,5.45,5.46H237a5.47,5.47,0,0,0,5.46-5.46V60.66A5.47,5.47,0,0,0,237,55.2Z" style="fill:#ebebeb"></path><path d="M453.31,337.8H260.21a5.72,5.72,0,0,1-5.71-5.71V60.66A5.72,5.72,0,0,1,260.21,55h193.1A5.71,5.71,0,0,1,459,60.66V332.09A5.71,5.71,0,0,1,453.31,337.8ZM260.21,55.2a5.47,5.47,0,0,0-5.46,5.46V332.09a5.47,5.47,0,0,0,5.46,5.46h193.1a5.47,5.47,0,0,0,5.46-5.46V60.66a5.47,5.47,0,0,0-5.46-5.46Z" style="fill:#ebebeb"></path><rect x="68.65" y="93.09" width="224.2" height="140.3" style="fill:#f0f0f0"></rect><rect x="117.2" y="55.52" width="127.11" height="215.43" transform="translate(343.99 -17.51) rotate(90)" style="fill:#fafafa"></rect><polygon points="101.39 226.79 123.49 99.68 139.79 99.68 117.69 226.79 101.39 226.79" style="fill:#fff"></polygon><polygon points="121.45 226.79 143.55 99.68 150.84 99.68 128.74 226.79 121.45 226.79" style="fill:#fff"></polygon><polygon points="157.11 226.79 179.21 99.68 195.5 99.68 173.4 226.79 157.11 226.79" style="fill:#fff"></polygon><polygon points="198.19 226.79 220.29 99.68 227.58 99.68 205.48 226.79 198.19 226.79" style="fill:#fff"></polygon><rect x="66.64" y="162.68" width="127.11" height="1.11" transform="translate(293.43 33.04) rotate(90)" style="fill:#e0e0e0"></rect><rect x="10.04" y="162.68" width="127.11" height="1.11" transform="translate(236.83 89.64) rotate(90)" style="fill:#e0e0e0"></rect><rect x="63.89" y="161.04" width="127.11" height="4.39" transform="translate(290.68 35.79) rotate(90)" style="fill:#f0f0f0"></rect><rect x="121.03" y="162.68" width="127.11" height="1.11" transform="translate(347.82 -21.34) rotate(90)" style="fill:#e0e0e0"></rect><rect x="118.28" y="161.04" width="127.11" height="4.39" transform="translate(345.06 -18.59) rotate(90)" style="fill:#f0f0f0"></rect><rect x="175.44" y="162.68" width="127.11" height="1.11" transform="translate(402.23 -75.76) rotate(90)" style="fill:#e0e0e0"></rect><rect x="172.69" y="161.04" width="127.11" height="4.39" transform="translate(399.48 -73.01) rotate(90)" style="fill:#f0f0f0"></rect><rect x="223.26" y="162.68" width="140.3" height="1.11" transform="translate(456.64 -130.17) rotate(90)" style="fill:#e0e0e0"></rect><path d="M315.63,83.45H58.69A1.47,1.47,0,0,1,57.23,82h0a1.47,1.47,0,0,1,1.46-1.47H315.63A1.47,1.47,0,0,1,317.1,82h0A1.47,1.47,0,0,1,315.63,83.45Z" style="fill:#e0e0e0"></path><g style="opacity:0.8"><rect x="62.29" y="77.7" width="97.49" height="189.43" style="fill:#f5f5f5"></rect><polygon points="100.49 269.22 92.32 269.22 94.62 79.79 98.27 79.79 100.49 269.22" style="fill:#e6e6e6"></polygon><polygon points="82.47 269.22 78.52 269.22 79.63 79.79 81.39 79.79 82.47 269.22" style="fill:#e6e6e6"></polygon><polygon points="124.19 269.22 120.24 269.22 121.35 79.79 123.11 79.79 124.19 269.22" style="fill:#e6e6e6"></polygon><polygon points="144.26 269.22 140.32 269.22 141.42 79.79 143.19 79.79 144.26 269.22" style="fill:#e6e6e6"></polygon></g><g style="opacity:0.8"><rect x="261.86" y="77.69" width="48.74" height="189.43" style="fill:#f5f5f5"></rect><polygon points="280.96 269.21 276.88 269.21 278.02 79.79 279.85 79.79 280.96 269.21" style="fill:#e6e6e6"></polygon><polygon points="271.95 269.21 269.98 269.21 270.53 79.79 271.41 79.79 271.95 269.21" style="fill:#e6e6e6"></polygon><polygon points="292.81 269.21 290.84 269.21 291.39 79.79 292.27 79.79 292.81 269.21" style="fill:#e6e6e6"></polygon><polygon points="302.84 269.21 300.87 269.21 301.43 79.79 302.31 79.79 302.84 269.21" style="fill:#e6e6e6"></polygon></g><rect x="259.3" y="285.07" width="9.38" height="95.62" transform="translate(527.97 665.76) rotate(180)" style="fill:#f0f0f0"></rect><rect x="64.24" y="279.35" width="206.72" height="5.72" transform="translate(335.19 564.43) rotate(180)" style="fill:#f0f0f0"></rect><rect x="70.34" y="380.69" width="194.51" height="1.71" transform="translate(335.19 763.09) rotate(180)" style="fill:#f0f0f0"></rect><rect x="66.52" y="285.07" width="192.77" height="95.62" style="fill:#fafafa"></rect><rect x="74.35" y="295.72" width="177.13" height="29.34" style="fill:#f0f0f0"></rect><rect x="74.35" y="338.88" width="177.13" height="29.34" style="fill:#f0f0f0"></rect><rect x="99.64" y="293.99" width="126.54" height="4.56" rx="1.82" transform="translate(325.82 592.55) rotate(180)" style="fill:#fafafa"></rect><rect x="99.64" y="337.15" width="126.54" height="4.56" rx="1.82" transform="translate(325.82 678.85) rotate(180)" style="fill:#fafafa"></rect><circle cx="404.86" cy="367.21" r="15.19" transform="translate(-141.08 393.83) rotate(-45)" style="fill:#ebebeb"></circle><circle cx="428.18" cy="363.44" r="18.95" style="fill:#f5f5f5"></circle><rect x="332.9" y="88.52" width="106.79" height="133.28" transform="translate(772.59 310.33) rotate(180)" style="fill:#e6e6e6"></rect><rect x="328.21" y="88.52" width="109.88" height="133.28" transform="translate(766.3 310.33) rotate(180)" style="fill:#f5f5f5"></rect><rect x="320.23" y="103.57" width="125.84" height="103.19" transform="translate(538.31 -227.98) rotate(90)" style="fill:#fafafa"></rect><circle cx="383.15" cy="142.24" r="35.26" style="fill:#fff"></circle><rect x="269.12" y="154.68" width="125.84" height="0.96" transform="translate(487.2 -176.87) rotate(90)" style="fill:#e6e6e6"></rect><path d="M420.55,134.71c-5.11-2.79-12.09-.46-14.82.46s-9.67,3.48-11.87-1h0a12,12,0,0,0-21.42,0c-2.2,4.47-9.14,1.92-11.87,1s-9.72-3.25-14.82-.46-1,10.33,3.81,13.6,10.68-3,5.24-4.42-8-2.38-7.28-5.72,7.78-2.55,13.27-1.35l1.26.29a17.43,17.43,0,0,1,13.25,15.3v.09c.29,3.13-.14,9.59-.3,13.08s2.87,11.46,3.13,14.25,5,2.84,5,2.84,4.75-.12,5-2.84,3.29-10.87,3.14-14.25-.59-10-.3-13.08v-.1a17.43,17.43,0,0,1,13.27-15.29l1.24-.29c5.49-1.2,12.59-2,13.27,1.35s-1.84,4.29-7.28,5.72.41,7.68,5.24,4.42S425.65,137.49,420.55,134.71Z" style="fill:#f0f0f0"></path><path d="M422.49,138.41a3.84,3.84,0,0,0-2.14-3.35,11.64,11.64,0,0,0-5.6-1.27,28.45,28.45,0,0,0-8.89,1.77l-.31.1-.06,0A21.2,21.2,0,0,1,395.33,137c-2.9-.48-7.39-1.55-12.18-1.55S373.87,136.52,371,137a21.17,21.17,0,0,1-10.15-1.32l-.06,0-.31-.1a28.52,28.52,0,0,0-8.89-1.77,11.64,11.64,0,0,0-5.6,1.27,3.84,3.84,0,0,0-2.14,3.35c-.16,3.35,2.92,7.49,6,9.56a4.79,4.79,0,0,0,2.72.86c2.12,0,3.89-1.42,4.05-2.69.11-.85-.55-1.51-1.87-1.86-5.2-1.36-8.35-2.39-7.57-6.19.37-1.8,2.3-2.71,5.74-2.71a40.83,40.83,0,0,1,8,1l1.27.3c7.39,1.79,19,8.08,19.67,15.65v.09c.25,2.62.81.77.62,4.35,0,.75-.07,1.44-.1,2-.09,1.93-4,5.54-3.07,8.73.64,2.3,1.2,11,1.31,12.22a2.56,2.56,0,0,0,5.11,0c.11-1.18.67-9.92,1.32-12.22.89-3.19-3-6.8-3.08-8.73,0-.6-.06-1.29-.1-2-.19-3.58.38-1.73.62-4.35v-.1c.72-7.57,12.3-13.86,19.7-15.65l1.25-.29a40.63,40.63,0,0,1,8-1c3.44,0,5.37.91,5.74,2.71.77,3.8-2.38,4.83-7.58,6.19-1.31.35-2,1-1.87,1.86.17,1.27,1.93,2.69,4,2.69h0a4.82,4.82,0,0,0,2.73-.86C419.57,145.9,422.64,141.76,422.49,138.41Z" style="fill:#e0e0e0;opacity:0.9"></path><path d="M372.55,144.11c-.09.78-.16,2.32-2.74,4.36C368,149.9,363,150.3,361,149a1.52,1.52,0,0,0-.16-.42,1.54,1.54,0,0,0,.09-.52,1.5,1.5,0,0,0-.55-1.16,1.68,1.68,0,0,0,.1-.55,1.48,1.48,0,0,0-1.4-1.48,2.45,2.45,0,0,0,0-.27,1.48,1.48,0,0,0-1.49-1.49,1.43,1.43,0,0,0-.5.09,1.49,1.49,0,0,0-1.39-.95,1.51,1.51,0,0,0-1.27.72,1.47,1.47,0,0,0-1.15-.55,1.49,1.49,0,0,0-1.49,1.49,1.4,1.4,0,0,0,.06.41,1.49,1.49,0,0,0,.17,2.88,1.33,1.33,0,0,0-.09.49,1.49,1.49,0,0,0,1.49,1.49,1.51,1.51,0,0,0,.86-.27,1.42,1.42,0,0,0-.07.42,1.49,1.49,0,0,0,1.49,1.49,1.47,1.47,0,0,0,1-.37,1.51,1.51,0,0,0,1.37.88,1.47,1.47,0,0,0,1.15-.55,1.27,1.27,0,0,0,.34,0h.11l.34.19a6.89,6.89,0,0,0,1.58.61,10.1,10.1,0,0,0,4.51.07,7.68,7.68,0,0,0,3.95-2.16,11.93,11.93,0,0,1,3.08-2.45,3.87,3.87,0,0,1,.93-.28C374.09,145.82,373.64,144.43,372.55,144.11Z" style="fill:#fafafa"></path><path d="M415.42,145.73a1.5,1.5,0,0,0-1-1.42,1.4,1.4,0,0,0,.06-.41,12.23,12.23,0,0,1-3.92-1.66,1.48,1.48,0,0,0-1.38.95,1.44,1.44,0,0,0-.51-.09,1.49,1.49,0,0,0-1.49,1.49,1.24,1.24,0,0,0,0,.27,1.48,1.48,0,0,0-1.4,1.48,1.45,1.45,0,0,0,.1.55,1.48,1.48,0,0,0-.56,1.16.87.87,0,0,1-.07.94c-2,1.31-6.95.91-8.77-.52-2.59-2-2.65-3.58-2.74-4.36-1.09.32-1.54,1.71-1.55,2.67a3.93,3.93,0,0,1,.94.28,11.88,11.88,0,0,1,3.07,2.45,7.71,7.71,0,0,0,4,2.16,10.1,10.1,0,0,0,4.51-.07,6.89,6.89,0,0,0,1.58-.61l.33-.19h.12a1.15,1.15,0,0,0,.33,0,3.71,3.71,0,0,1,3.5,0,1.49,1.49,0,0,0,1.49-1.49,1.42,1.42,0,0,0-.06-.42,1.49,1.49,0,0,0,2.34-1.22,1.57,1.57,0,0,0-.08-.49A1.49,1.49,0,0,0,415.42,145.73Z" style="fill:#fafafa"></path><path d="M412.05,202.68H354.24a3.38,3.38,0,0,1-3.37-3.37h0a3.38,3.38,0,0,1,3.37-3.37h57.81a3.38,3.38,0,0,1,3.37,3.37h0A3.38,3.38,0,0,1,412.05,202.68Z" style="fill:#fff"></path></g><g id="freepik--Shadow--inject-32"><ellipse id="freepik--path--inject-32" cx="250" cy="416.24" rx="193.89" ry="11.32" style="fill:#f5f5f5"></ellipse></g><g id="freepik--Table--inject-32"><rect x="191.84" y="275.58" width="4.04" height="125.61" style="fill:#407BFF"></rect><rect x="191.84" y="275.58" width="4.04" height="125.61" style="fill:#fff;opacity:0.8"></rect><rect x="187.8" y="275.58" width="4.04" height="125.61" transform="translate(379.64 676.78) rotate(180)" style="fill:#407BFF"></rect><rect x="187.8" y="275.58" width="4.04" height="125.61" transform="translate(379.64 676.78) rotate(180)" style="fill:#fff;opacity:0.7000000000000001"></rect><circle cx="191.84" cy="405.22" r="3.15" style="fill:#263238"></circle><rect x="188.31" y="401.2" width="7.06" height="1.36" style="fill:#263238"></rect><rect x="227.17" y="232.07" width="9.49" height="77.53" transform="translate(502.75 38.92) rotate(90)" style="fill:#407BFF"></rect><rect x="227.17" y="232.07" width="9.49" height="77.53" transform="translate(502.75 38.92) rotate(90)" style="fill:#fff;opacity:0.8"></rect><rect x="176.63" y="259.07" width="9.49" height="23.55" transform="translate(452.22 89.46) rotate(90)" style="fill:#407BFF"></rect><rect x="176.63" y="259.07" width="9.49" height="23.55" transform="translate(452.22 89.46) rotate(90)" style="fill:#fff;opacity:0.7000000000000001"></rect><rect x="175.61" y="275.58" width="4.04" height="125.61" style="fill:#407BFF"></rect><rect x="175.61" y="275.58" width="4.04" height="125.61" style="fill:#fff;opacity:0.8"></rect><rect x="171.57" y="275.58" width="4.04" height="125.61" transform="translate(347.17 676.78) rotate(180)" style="fill:#407BFF"></rect><rect x="171.57" y="275.58" width="4.04" height="125.61" transform="translate(347.17 676.78) rotate(180)" style="fill:#fff;opacity:0.7000000000000001"></rect><circle cx="175.61" cy="405.22" r="3.15" style="fill:#263238"></circle><rect x="172.08" y="401.2" width="7.06" height="1.36" style="fill:#263238"></rect><rect x="264.38" y="275.58" width="4.04" height="125.61" style="fill:#407BFF"></rect><rect x="264.38" y="275.58" width="4.04" height="125.61" style="fill:#fff;opacity:0.8"></rect><rect x="260.33" y="275.58" width="4.04" height="125.61" transform="translate(524.71 676.78) rotate(180)" style="fill:#407BFF"></rect><rect x="260.33" y="275.58" width="4.04" height="125.61" transform="translate(524.71 676.78) rotate(180)" style="fill:#fff;opacity:0.7000000000000001"></rect><path d="M267.53,405.22a3.15,3.15,0,1,1-3.15-3.15A3.16,3.16,0,0,1,267.53,405.22Z" style="fill:#263238"></path><rect x="260.85" y="401.2" width="7.06" height="1.36" style="fill:#263238"></rect><rect x="248.15" y="275.58" width="4.04" height="125.61" style="fill:#407BFF"></rect><rect x="248.15" y="275.58" width="4.04" height="125.61" style="fill:#fff;opacity:0.8"></rect><rect x="244.1" y="275.58" width="4.04" height="125.61" transform="translate(492.25 676.78) rotate(180)" style="fill:#407BFF"></rect><rect x="244.1" y="275.58" width="4.04" height="125.61" transform="translate(492.25 676.78) rotate(180)" style="fill:#fff;opacity:0.7000000000000001"></rect><path d="M251.3,405.22a3.16,3.16,0,1,1-3.15-3.15A3.16,3.16,0,0,1,251.3,405.22Z" style="fill:#263238"></path><rect x="244.62" y="401.2" width="7.06" height="1.36" style="fill:#263238"></rect><rect x="178.6" y="324.06" width="5.68" height="17.96" transform="translate(514.48 151.61) rotate(90)" style="fill:#407BFF"></rect><rect x="178.6" y="324.06" width="5.68" height="17.96" transform="translate(514.48 151.61) rotate(90)" style="fill:#fff;opacity:0.7000000000000001"></rect><rect x="227.68" y="296.37" width="5.68" height="73.33" transform="translate(563.56 102.51) rotate(90)" style="fill:#407BFF"></rect><rect x="227.68" y="296.37" width="5.68" height="73.33" transform="translate(563.56 102.51) rotate(90)" style="fill:#fff;opacity:0.8"></rect><rect x="212.27" y="314.05" width="11.65" height="16.15" rx="1.77" style="fill:#407BFF"></rect><rect x="212.27" y="314.05" width="11.65" height="16.15" rx="1.77" style="fill:#fff;opacity:0.30000000000000004"></rect><rect x="219.9" y="318.67" width="4.02" height="8.11" style="fill:#fff"></rect><rect x="214.76" y="318.67" width="4.02" height="8.11" style="fill:#fff"></rect><rect x="213.84" y="311.86" width="8.5" height="2.18" rx="0.53" style="fill:#407BFF"></rect><rect x="200.66" y="312.66" width="12.65" height="17.54" rx="1.92" style="fill:#407BFF"></rect><rect x="200.66" y="312.66" width="12.65" height="17.54" rx="1.92" style="fill:#fff;opacity:0.5"></rect><rect x="204.79" y="317.68" width="7.19" height="8.81" style="fill:#fff"></rect><rect x="202.37" y="310.28" width="9.24" height="2.37" rx="0.58" style="fill:#407BFF"></rect><rect x="180.78" y="249.49" width="27" height="16.6" style="fill:#407BFF"></rect><rect x="189.82" y="249.49" width="17.96" height="16.6" transform="translate(397.6 515.58) rotate(180)" style="fill:#fff;opacity:0.2"></rect><rect x="180.78" y="249.49" width="27" height="6.86" transform="translate(388.56 505.83) rotate(180)" style="fill:#fff;opacity:0.5"></rect><rect x="180.78" y="257.79" width="27" height="1.44" transform="translate(388.56 517.02) rotate(180)" style="fill:#fff;opacity:0.5"></rect><rect x="191.26" y="260.75" width="15.08" height="3.82" style="fill:#fff"></rect><path d="M242.53,259.61h0a.77.77,0,0,1-.1-1.07l8-9.58a.77.77,0,0,1,1.08-.1h0a.77.77,0,0,1,.1,1.07l-8,9.58A.77.77,0,0,1,242.53,259.61Z" style="fill:#407BFF"></path><path d="M245.13,259.67h0a.77.77,0,0,1-.1-1.08l8-9.57a.75.75,0,0,1,1.07-.1h0a.75.75,0,0,1,.1,1.07l-8,9.58A.77.77,0,0,1,245.13,259.67Z" style="fill:#407BFF"></path><path d="M247.32,260.22h0a.76.76,0,0,1-.1-1.08l8-9.57a.75.75,0,0,1,1.07-.1h0a.76.76,0,0,1,.1,1.07l-8,9.58A.76.76,0,0,1,247.32,260.22Z" style="fill:#407BFF"></path><path d="M237.47,257.93c-3.7,0-7.88-1.07-11.57-2-2.67-.69-6.7-1.72-7.27-1.13h0s-.11.27.27,1.18a1,1,0,1,1-1.84.77c-.22-.53-.9-2.14.06-3.26,1.33-1.54,4.49-.73,9.28.5,3.57.92,7.62,2,11.07,2s7.49-1,11.07-2c4.79-1.23,8-2,9.28-.5,1,1.12.28,2.73.05,3.26A1,1,0,1,1,256,256c.39-.91.27-1.19.27-1.19-.57-.58-4.6.45-7.26,1.14C245.35,256.86,241.16,257.93,237.47,257.93Z" style="fill:#407BFF"></path><path d="M237.47,257.93c-3.7,0-7.88-1.07-11.57-2-2.67-.69-6.7-1.72-7.27-1.13h0s-.11.27.27,1.18a1,1,0,1,1-1.84.77c-.22-.53-.9-2.14.06-3.26,1.33-1.54,4.49-.73,9.28.5,3.57.92,7.62,2,11.07,2s7.49-1,11.07-2c4.79-1.23,8-2,9.28-.5,1,1.12.28,2.73.05,3.26A1,1,0,1,1,256,256c.39-.91.27-1.19.27-1.19-.57-.58-4.6.45-7.26,1.14C245.35,256.86,241.16,257.93,237.47,257.93Z" style="fill:#fff;opacity:0.5"></path><path d="M237.47,256.93c-9.15,0-22.2-7-19.49-.58s10.17,9.74,19.49,9.74,16.77-3.3,19.48-9.74S246.62,256.93,237.47,256.93Z" style="fill:#407BFF"></path></g><g id="freepik--character-1--inject-32"><path d="M183.75,179.7a1.91,1.91,0,0,0,.66,1.13l3,2.54a2,2,0,0,0,2.08.3l3-1.35a22.17,22.17,0,0,0,7.66-5.66l.71-.8a3.27,3.27,0,0,0-.36-4.65l-3.08-2.59a3.26,3.26,0,0,0-4.22,0l-3.59,3.08S183.07,175.65,183.75,179.7Z" style="fill:#ffb573"></path><path d="M181.81,181.28a15.39,15.39,0,0,1,1-4.48c2.54-.47,8.9,4.79,9.74,7-.54,1.22-3.6,3.66-3.6,3.66C187,185.34,183.33,182.79,181.81,181.28Z" style="fill:#e0e0e0"></path><path d="M155.7,164.83c.88,3,1.84,6,2.81,9s2,6,3,9,2.12,5.86,3.26,8.61c.57,1.38,1.16,2.71,1.75,3.89.28.59.57,1.1.81,1.54l.15.25.07.12,0,0s.05.09,0,0a.87.87,0,0,0-.27-.23l-.62-.51a3,3,0,0,0-.81-.3,2.17,2.17,0,0,0-.86,0c-.3.12.22.06.9-.35a23.24,23.24,0,0,0,5-4.44,68.2,68.2,0,0,0,5-6.43c.8-1.14,1.59-2.32,2.34-3.51l1.12-1.79,1-1.74,12.74,6.6c-.42.85-.76,1.51-1.15,2.25L190.91,189q-1.17,2.11-2.44,4.19a84.35,84.35,0,0,1-5.66,8.22,49.31,49.31,0,0,1-3.53,4,30.89,30.89,0,0,1-4.62,3.92,18.08,18.08,0,0,1-7.42,3.07,14.19,14.19,0,0,1-5.36-.22,14.35,14.35,0,0,1-4.89-2.23l-.05,0c-.19-.14-.4-.31-.58-.47-.38-.35-.75-.72-1.11-1.1s-.51-.59-.76-.9l-.35-.44-.27-.37-.53-.76c-.61-.93-1.14-1.81-1.61-2.64-.94-1.67-1.73-3.26-2.48-4.83-1.5-3.14-2.82-6.22-4.1-9.3s-2.48-6.15-3.66-9.23-2.31-6.13-3.44-9.32Z" style="fill:#407BFF"></path><path d="M155.7,164.83c.88,3,1.84,6,2.81,9s2,6,3,9,2.12,5.86,3.26,8.61c.57,1.38,1.16,2.71,1.75,3.89.28.59.57,1.1.81,1.54l.15.25.07.12,0,0s.05.09,0,0a.87.87,0,0,0-.27-.23l-.62-.51a3,3,0,0,0-.81-.3,2.17,2.17,0,0,0-.86,0c-.3.12.22.06.9-.35a23.24,23.24,0,0,0,5-4.44,68.2,68.2,0,0,0,5-6.43c.8-1.14,1.59-2.32,2.34-3.51l1.12-1.79,1-1.74,12.74,6.6c-.42.85-.76,1.51-1.15,2.25L190.91,189q-1.17,2.11-2.44,4.19a84.35,84.35,0,0,1-5.66,8.22,49.31,49.31,0,0,1-3.53,4,30.89,30.89,0,0,1-4.62,3.92,18.08,18.08,0,0,1-7.42,3.07,14.19,14.19,0,0,1-5.36-.22,14.35,14.35,0,0,1-4.89-2.23l-.05,0c-.19-.14-.4-.31-.58-.47-.38-.35-.75-.72-1.11-1.1s-.51-.59-.76-.9l-.35-.44-.27-.37-.53-.76c-.61-.93-1.14-1.81-1.61-2.64-.94-1.67-1.73-3.26-2.48-4.83-1.5-3.14-2.82-6.22-4.1-9.3s-2.48-6.15-3.66-9.23-2.31-6.13-3.44-9.32Z" style="fill:#fff;opacity:0.6000000000000001"></path><path d="M136.64,318.36c-11.78-37.34-20.88-82.78-20.88-82.78l35.41-3.48s2.32,58.46,4.53,84.35C158,343.37,167,405.89,167,405.89l-10.77.88S137.73,351.78,136.64,318.36Z" style="fill:#407BFF"></path><path d="M129.57,266.09l-4.93,8.78c2.52,10.25,5.47,21.52,8.69,32.55C132.88,290.11,131.07,270.11,129.57,266.09Z" style="opacity:0.2"></path><path d="M181.41,408.39s-15.23-1.26-16.69-3.42l-8.19,1.24,1.36,8.63,5-.76.66-.91,1.39.6c4.09-.61,14.91-2.4,17.34-3.71A1.92,1.92,0,0,0,181.41,408.39Z" style="fill:#263238"></path><path d="M102.21,315.87c.64-38.39-1.83-64.05,1.46-83l32.36-.49s-7.94,60.91-11.9,86.27-9,88-9,88h-10S96.43,345.56,102.21,315.87Z" style="fill:#407BFF"></path><path d="M125,412s-9.6-3.51-10.87-5.86h-8.29l.63,8.74h6.76l.73-.81,1.35.81c4.13,0,7.92-.16,10.46-1.09A2.05,2.05,0,0,0,125,412Z" style="fill:#263238"></path><path d="M105.12,156.3c11.44-1.42,27.8-1.29,38.76.6a13.3,13.3,0,0,1,10.77,11.17c2.31,16.56.32,45.5-1.15,74.63-25,8.57-51.47-.12-51.47-.12-.91-5.87,1.14-25.13,2.52-35.41-2.07-10.61-6.45-22.77-9.35-36.87A11.56,11.56,0,0,1,105.12,156.3Z" style="fill:#fff"></path><path d="M115.33,134.44l14.14,10.68c-1.68,4.49-2.22,9.16,5.14,10.95,1.84,2.43-1.4,5.22-4.45,6.49-4.91-.61-11.84-2.24-14.83-6.36C116.27,153,116.59,141.07,115.33,134.44Z" style="fill:#ffb573"></path><path d="M133.27,159.86a9.88,9.88,0,0,1-2.7,4.08c-2,0-4.89-2.24-4.89-2.24s1.12-3.15,2.7-3.8C132.41,158.89,133.27,159.86,133.27,159.86Z" style="fill:#263238"></path><path d="M128.74,162.75a2.33,2.33,0,0,1,2.19-.73c2.61,4.88,6.7,34.93,8.3,43.67-.69,5.3-1.72,7.12-3.1,13.18-1.26-4.69-3.06-7.47-5.06-12.7C131.64,199.92,129.56,170.78,128.74,162.75Z" style="fill:#263238"></path><path d="M129.48,145.12h0l-.12-.09-7.9-6c-.79,0-2.31-.05-1.66,5.49.4,3.53,5.75,7.34,9.27,8.05-1.15-2.12-.59-4.78.39-7.39Z" style="opacity:0.2"></path><path d="M139,121.45c2.84,4.42.85,11.23-1.33,13.41C133.7,127.52,134.65,119.44,139,121.45Z" style="fill:#263238"></path><path d="M116.47,126c-.22,8.25-.77,13.08,3,17.62,5.7,6.84,16.19,3.88,18.88-4.17,2.42-7.24,2.37-19.53-5.41-23.43A11.38,11.38,0,0,0,116.47,126Z" style="fill:#ffb573"></path><path d="M118.51,132.5c4.08-.38,5.25-7.46,2.81-13.14,5.13-1.31,10.1.84,13.53,2.11s8.52,1.46,8.52-2.79c-1.76,1-5.21-.58-5.57-2.34,3.72.48,4.1-5.34,2-6.28,0,3-9.93,1.13-15.15-.73-9.88-3.53-15.6,2.17-12.59,7.4-7.74,3.8-3,11.2,3.14,17A14,14,0,0,1,118.51,132.5Z" style="fill:#263238"></path><path d="M121,129.09c-.63,5.57,15.3,8.49,18,8.26.84,4.83,4.15,8,.81,11s-15.22,3.77-19.42-2.33-.95-16.5-.95-16.5Z" style="fill:#263238"></path><path d="M132.55,139.31a8,8,0,0,0,1.28,0A.22.22,0,0,0,134,139a.24.24,0,0,0-.27-.19,6.48,6.48,0,0,1-5.31-1.76.23.23,0,0,0-.32,0,.23.23,0,0,0,0,.32A6.87,6.87,0,0,0,132.55,139.31Z" style="fill:#ffb573"></path><path d="M114.48,116.6c-3.77.62-5-3.12-3.59-6C105.59,113,109.77,119.36,114.48,116.6Z" style="fill:#263238"></path><path d="M112.66,131.76a7.08,7.08,0,0,0,3.27,4.38c2.18,1.27,3.91-.52,3.86-2.9-.06-2.14-1.25-5.38-3.7-5.67A3.24,3.24,0,0,0,112.66,131.76Z" style="fill:#ffb573"></path><path d="M129.29,128.49c-.06.67.25,1.24.69,1.27s.84-.48.9-1.14-.25-1.24-.69-1.28S129.35,127.82,129.29,128.49Z" style="fill:#263238"></path><path d="M137.21,129.66c-.06.67.25,1.24.69,1.27s.84-.48.9-1.15-.25-1.24-.69-1.27S137.27,129,137.21,129.66Z" style="fill:#263238"></path><path d="M135,130.19a23.48,23.48,0,0,0,2.7,6,3.91,3.91,0,0,1-3.26.35Z" style="fill:#ed893e"></path><path d="M126.14,125.91a.35.35,0,0,1-.19-.06.4.4,0,0,1-.13-.54,4,4,0,0,1,3.05-2,.4.4,0,0,1,0,.79h0a3.16,3.16,0,0,0-2.4,1.57A.37.37,0,0,1,126.14,125.91Z" style="fill:#263238"></path><path d="M140,127.21a.39.39,0,0,1-.33-.17,3,3,0,0,0-2.46-1.41.39.39,0,0,1-.4-.39.38.38,0,0,1,.38-.4,3.87,3.87,0,0,1,3.13,1.75.39.39,0,0,1-.1.55A.36.36,0,0,1,140,127.21Z" style="fill:#263238"></path><path d="M115.63,154s-4,1.08-4,1.09c0,1,1.11,2.9,3.91,5.35,2.62,2.28,8.29,6.22,10.82,6.22-.31-3,.61-7.3,2-8.76C125.07,158.07,118.82,156.16,115.63,154Z" style="fill:#e0e0e0"></path><path d="M128.38,157.9c2.81,1.1,5.91,5.27,6.77,8.11,1.48-.79,3.06-6.48,2.19-10.15a7.38,7.38,0,0,0-4.48-.83C132.67,156.25,131.79,157.72,128.38,157.9Z" style="fill:#e0e0e0"></path><polygon points="115.73 406.94 104.63 407.25 103.47 400.95 116.47 401.73 115.73 406.94" style="fill:#407BFF"></polygon><polygon points="115.73 406.94 104.63 407.25 103.47 400.95 116.47 401.73 115.73 406.94" style="opacity:0.2"></polygon><polygon points="167.5 405.81 155.62 407.65 153.61 402.4 166.78 399.42 167.5 405.81" style="fill:#407BFF"></polygon><polygon points="167.5 405.81 155.62 407.65 153.61 402.4 166.78 399.42 167.5 405.81" style="opacity:0.2"></polygon><path d="M109.62,154c10,13.4,14.13,91.59,8.51,159-14.66,2.55-29.47-18.36-29.47-18.36s9.73-67.8,7.18-89.47-5.39-34.34-4.69-40.78S102.38,155.08,109.62,154Z" style="fill:#407BFF"></path><path d="M109.62,154c10,13.4,14.13,91.59,8.51,159-14.66,2.55-29.47-18.36-29.47-18.36s9.73-67.8,7.18-89.47-5.39-34.34-4.69-40.78S102.38,155.08,109.62,154Z" style="fill:#fff;opacity:0.7000000000000001"></path><path d="M137.59,155c6.6,23.29,14.78,105.15,11.79,154.13,5.56-4.58,11.93-15.11,11.79-18.92-.13-3.55-2.55-67.32-3.47-76.82-.53-15.46-.14-38.92-2-47.95S144.42,154.4,137.59,155Z" style="fill:#407BFF"></path><path d="M137.59,155c6.6,23.29,14.78,105.15,11.79,154.13,5.56-4.58,11.93-15.11,11.79-18.92-.13-3.55-2.55-67.32-3.47-76.82-.53-15.46-.14-38.92-2-47.95S144.42,154.4,137.59,155Z" style="fill:#fff;opacity:0.7000000000000001"></path><path d="M133.36,231,105,230.42a1.75,1.75,0,0,1-1.71-2.14l7.46-40.12a2.58,2.58,0,0,1,2.49-2l28.35.61a1.75,1.75,0,0,1,1.71,2.14L135.85,229A2.6,2.6,0,0,1,133.36,231Z" style="fill:#407BFF"></path><path d="M124.38,212.69a1.89,1.89,0,0,1-.19-1.3l.74-3.84a2,2,0,0,1,1.44-1.53l3.2-.82a22.17,22.17,0,0,1,9.52-.36l1,.19a3.26,3.26,0,0,1,2.62,3.86l-.79,3.94a3.27,3.27,0,0,1-3.32,2.62l-4.72-.17S126.37,216.28,124.38,212.69Z" style="fill:#ffb573"></path><path d="M125,204.91a15.1,15.1,0,0,1,4.48-1c1.48,2.11-.66,10.08-2.35,11.79-1.33,0-4.82-1.76-4.82-1.76C123.5,211.28,124.3,206.92,125,204.91Z" style="fill:#e0e0e0"></path><path d="M108.23,169.82c-1.12,2.87-2.24,5.89-3.32,8.85s-2.12,6-3.11,8.91-1.92,5.93-2.71,8.81c-.39,1.43-.75,2.85-1,4.13-.13.65-.23,1.23-.3,1.72l0,.29,0,.14v.05s0,.1,0,0a1.36,1.36,0,0,0-.07-.35l-.19-.78a1.43,1.43,0,0,0-.3-.5c-.1-.09-.11,0,0,.08a6.78,6.78,0,0,0,2.1,1.07,33.23,33.23,0,0,0,7.84,1.42,83.16,83.16,0,0,0,9.11.16c1.55,0,3.11-.14,4.67-.26l2.33-.2,2.22-.23,2.29,14.16c-1,.18-1.81.31-2.71.44l-2.61.37c-1.74.23-3.49.43-5.25.59a98.07,98.07,0,0,1-10.79.41,48.25,48.25,0,0,1-11.78-1.56,23.05,23.05,0,0,1-6.89-3.12,16.68,16.68,0,0,1-3.57-3.33,14.88,14.88,0,0,1-2.56-4.9l0-.06a6.41,6.41,0,0,1-.17-.73c-.08-.51-.15-1-.2-1.55s0-.78,0-1.18v-1l.05-.92c.09-1.11.21-2.13.35-3.07.29-1.9.63-3.64,1-5.34.74-3.4,1.59-6.64,2.47-9.86s1.82-6.38,2.78-9.53,1.94-6.26,3-9.46Z" style="fill:#407BFF"></path><path d="M108.23,169.82c-1.12,2.87-2.24,5.89-3.32,8.85s-2.12,6-3.11,8.91-1.92,5.93-2.71,8.81c-.39,1.43-.75,2.85-1,4.13-.13.65-.23,1.23-.3,1.72l0,.29,0,.14v.05s0,.1,0,0a1.36,1.36,0,0,0-.07-.35l-.19-.78a1.43,1.43,0,0,0-.3-.5c-.1-.09-.11,0,0,.08a6.78,6.78,0,0,0,2.1,1.07,33.23,33.23,0,0,0,7.84,1.42,83.16,83.16,0,0,0,9.11.16c1.55,0,3.11-.14,4.67-.26l2.33-.2,2.22-.23,2.29,14.16c-1,.18-1.81.31-2.71.44l-2.61.37c-1.74.23-3.49.43-5.25.59a98.07,98.07,0,0,1-10.79.41,48.25,48.25,0,0,1-11.78-1.56,23.05,23.05,0,0,1-6.89-3.12,16.68,16.68,0,0,1-3.57-3.33,14.88,14.88,0,0,1-2.56-4.9l0-.06a6.41,6.41,0,0,1-.17-.73c-.08-.51-.15-1-.2-1.55s0-.78,0-1.18v-1l.05-.92c.09-1.11.21-2.13.35-3.07.29-1.9.63-3.64,1-5.34.74-3.4,1.59-6.64,2.47-9.86s1.82-6.38,2.78-9.53,1.94-6.26,3-9.46Z" style="fill:#fff;opacity:0.7000000000000001"></path></g><g id="freepik--character-2--inject-32"><path d="M323.36,395.94h0a107.31,107.31,0,0,1-50.87,12.82H269a3.74,3.74,0,0,0-3.74,3.74h0a3.74,3.74,0,0,0,3.74,3.74H381.19a5.41,5.41,0,0,0,5.41-5.41V400.71a5.41,5.41,0,0,0-5.41-5.41H325.93A5.47,5.47,0,0,0,323.36,395.94Z" style="fill:#263238"></path><path d="M364,400.71H341.15a7.24,7.24,0,0,1-6.68-4.46l-12.24-29.47a7.24,7.24,0,0,1,6.68-10h22.83a7.25,7.25,0,0,1,6.69,4.46l12.23,29.48A7.23,7.23,0,0,1,364,400.71Z" style="fill:#e0e0e0"></path><path d="M361.17,399.71H341a4.53,4.53,0,0,1-4.2-2.8l-13.12-31.6a4.55,4.55,0,0,1,4.2-6.29h20.13a4.54,4.54,0,0,1,4.2,2.81l13.12,31.59A4.55,4.55,0,0,1,361.17,399.71Z" style="opacity:0.2"></path><rect x="311.04" y="340.83" width="53.84" height="19.77" rx="7.04" style="fill:#263238"></rect><path d="M307.3,295.3h76.65a0,0,0,0,1,0,0v33.86A16.82,16.82,0,0,1,367.12,346H307.3a0,0,0,0,1,0,0V295.3A0,0,0,0,1,307.3,295.3Z" style="fill:#e0e0e0"></path><path d="M308.87,302.35H370a0,0,0,0,1,0,0v27a13.42,13.42,0,0,1-13.42,13.42H308.87a0,0,0,0,1,0,0V302.35A0,0,0,0,1,308.87,302.35Z" style="opacity:0.2"></path><path d="M316.17,415.5H269.5a3,3,0,0,1-2.95-2.95h0a3,3,0,0,1,2.95-2.95h46.67a3,3,0,0,1,2.95,2.95h0A3,3,0,0,1,316.17,415.5Z" style="opacity:0.6000000000000001"></path><path d="M255.26,301a2.07,2.07,0,1,1-2.07-2.06A2.06,2.06,0,0,1,255.26,301Z" style="fill:#263238"></path><circle cx="281.64" cy="360.6" r="4.28" style="fill:#263238"></circle><path d="M289.91,389.51h0a.84.84,0,0,1-1-.57l-25.06-87.65a.84.84,0,0,1,.57-1h0a.84.84,0,0,1,1,.57l25.07,87.65A.83.83,0,0,1,289.91,389.51Z" style="fill:#e0e0e0"></path><path d="M252.85,301h0a.85.85,0,0,1,.84-.84h10.92a.85.85,0,0,1,.84.84h0a.85.85,0,0,1-.84.85H253.69A.85.85,0,0,1,252.85,301Z" style="fill:#e0e0e0"></path><rect x="252.35" y="296.36" width="1.68" height="11.03" rx="0.79" transform="translate(506.39 603.76) rotate(180)" style="fill:#e0e0e0"></rect><path d="M235.55,300.44a8.56,8.56,0,0,1-2.61-1.53,2,2,0,0,1,.95-3.43c6-1.29,18.71-4.2,24.06-6.24-1.74,4.73-12.86,10.68-16.48,11.39A11.44,11.44,0,0,1,235.55,300.44Z"></path><path d="M235.55,300.44c4.27,1.2,8.47-2.33,8.53-7.19a2.76,2.76,0,0,1,1.74-2.51c4.35-1.75,13.65-4.42,18.16-5.68a2.29,2.29,0,0,1,2.91,2.15c.05,3-.8,7.36-6,8.81C243.84,300.78,239.38,301.9,235.55,300.44Z" style="fill:#263238"></path><path d="M458.54,248.13l-1-.15a8.86,8.86,0,0,0-8.75-10h-17v-1h17a9.87,9.87,0,0,1,9.74,11.2Z" style="fill:#407BFF"></path><polygon points="452.46 256.74 451.77 256.01 455.48 252.5 456.23 253.15 456.14 253.26 452.46 256.74" style="fill:#407BFF"></polygon><path d="M344.57,318.44H269.45c-7.13,0-8.9-9.91-2.21-12.38l28.56-10.54a128.11,128.11,0,0,0,38.74-22.68L367.23,245a19.79,19.79,0,0,1,12.82-4.72H448.8a6.47,6.47,0,0,1,4.9,10.7l-27.61,26A141,141,0,0,1,399,295.11l-34.54,17.72C355.93,317.21,354.17,318.44,344.57,318.44Z" style="fill:#407BFF"></path><path d="M412.81,284.55a.49.49,0,0,1-.44-.26l-1-1.87a11.37,11.37,0,0,0-9.94-5.86H334.16a.5.5,0,0,1-.5-.5.5.5,0,0,1,.5-.5H401.4a12.33,12.33,0,0,1,10.81,6.38l1,1.87a.51.51,0,0,1-.2.68A.53.53,0,0,1,412.81,284.55Z" style="opacity:0.2"></path><path d="M340.62,307.13H269.2c-6.3,2-4.63,10.23,2.08,10.23h69.34c3.63,0,6.37-2.88,5.73-6h0A5.66,5.66,0,0,0,340.62,307.13Z" style="opacity:0.2"></path><path d="M293.58,363.72H223.77a8.29,8.29,0,0,1-5.53-14.47l35.47-31.73a20.64,20.64,0,0,1,13.79-5.27h69.81a8.29,8.29,0,0,1,5.53,14.47l-35.47,31.73A20.64,20.64,0,0,1,293.58,363.72Z" style="fill:#407BFF"></path><path d="M287.1,362.49h-64a5.75,5.75,0,0,1-5.73-5.73h0a5.75,5.75,0,0,1,5.73-5.73h64a5.75,5.75,0,0,1,5.74,5.73h0A5.75,5.75,0,0,1,287.1,362.49Z" style="opacity:0.2"></path><path d="M346.41,195.47l-3.05,2.26c.94,9.84,10.74,13.2,13.39,6.46C359,198.57,353.19,195.57,346.41,195.47Z" style="fill:#263238"></path><path d="M349.2,195.56c-.22,2.9-1.81,6.76-6.62,5.22a1.06,1.06,0,0,1-.46-1.7,22.26,22.26,0,0,1,5.45-4.51A1.07,1.07,0,0,1,349.2,195.56Z" style="fill:#407BFF"></path><path d="M322.75,167.81c.53-4,15.33-6.79,22,5.73,3.68,6.88,3.89,14.38,3.5,19.14a7.77,7.77,0,0,1-5.12,6.68c-5.27,1.92-14,4.3-18.41,1.21C315.92,194.46,322.75,167.81,322.75,167.81Z" style="fill:#263238"></path><path d="M322.75,167.81c-14.67,10.62-13.29,25.29-4.36,29.34C330.37,190.26,322.75,167.81,322.75,167.81Z" style="fill:#263238"></path><path d="M269.48,236.09,267.2,230l-7.14,7.79s4.07,4.16,8.32,4.87l.62-1A6.45,6.45,0,0,0,269.48,236.09Z" style="fill:#7f3e3b"></path><path d="M260.16,230.16l-1.92,2.8a2.81,2.81,0,0,0,.54,3.79l1.28,1.05L267.2,230l-4-1A2.85,2.85,0,0,0,260.16,230.16Z" style="fill:#7f3e3b"></path><path d="M315.87,223.68c-.28.79-.51,1.38-.77,2s-.53,1.28-.81,1.9c-.55,1.26-1.13,2.49-1.74,3.71a79.59,79.59,0,0,1-4,7.15,74.38,74.38,0,0,1-4.81,6.73,59.2,59.2,0,0,1-5.7,6.18l-1.59,1.42-.39.35-.1.09-.18.15-.54.42a8.51,8.51,0,0,1-2.27,1.08,9.51,9.51,0,0,1-3.73.31,14.42,14.42,0,0,1-2.74-.55,32.75,32.75,0,0,1-8-3.86A77.87,77.87,0,0,1,266,240.73a2.77,2.77,0,0,1,3.3-4.39l.09,0c4.34,2.46,8.82,4.94,13.19,6.91a29.13,29.13,0,0,0,6.2,2.13,4.91,4.91,0,0,0,1.06.08c.26,0,.32-.1.09,0a1.47,1.47,0,0,0-.55.23.88.88,0,0,0-.17.12l0,0,0,0,.07-.08.3-.31,1.2-1.25a67.58,67.58,0,0,0,8.29-11.44c1.23-2.06,2.33-4.2,3.42-6.35.54-1.08,1.06-2.17,1.54-3.26l.71-1.64.64-1.54.1-.24a5.55,5.55,0,0,1,10.36,4Z" style="fill:#7f3e3b"></path><path d="M311.2,213.73c-9.48,5.6-10.51,15.68-14.82,19.64,4.64,11,12.34,11.08,12.34,11.08S321.72,207.53,311.2,213.73Z" style="fill:#407BFF"></path><path d="M311.2,213.73c-9.48,5.6-10.51,15.68-14.82,19.64,4.64,11,12.34,11.08,12.34,11.08S321.72,207.53,311.2,213.73Z" style="fill:#fff;opacity:0.30000000000000004"></path><path d="M348.3,262.42a328.17,328.17,0,0,0,1.24-39.32c-.23-5.42-2.63-10.41-8-11-1.44-.14-3-.26-4.53-.34a116.44,116.44,0,0,0-16.4,0c-1.78.17-3.61.39-5.35.64a12.39,12.39,0,0,0-10.66,12.8c.16,3.55-5.45,11.77,1.47,16.53.59,5.13-.19,13.89.06,22.81h0c-4.68,8.05-20.34,14.25-21.7,22.06-1.92,11.08,10.05,15.25,21.43,16C340.72,305.06,358.16,300.26,348.3,262.42Z" style="fill:#407BFF"></path><path d="M348.3,262.42a328.17,328.17,0,0,0,1.24-39.32c-.23-5.42-2.63-10.41-8-11-1.44-.14-3-.26-4.53-.34a116.44,116.44,0,0,0-16.4,0c-1.78.17-3.61.39-5.35.64a12.39,12.39,0,0,0-10.66,12.8c.16,3.55-5.45,11.77,1.47,16.53.59,5.13-.19,13.89.06,22.81h0c-4.68,8.05-20.34,14.25-21.7,22.06-1.92,11.08,10.05,15.25,21.43,16C340.72,305.06,358.16,300.26,348.3,262.42Z" style="fill:#fff;opacity:0.4"></path><path d="M312.11,281.22c-4.19.91-14.85-2.37-21.08-1.07a8.37,8.37,0,0,0-6.47,5.78,5.62,5.62,0,0,0-.16.71c-1.93,11.08,10,15.25,21.42,16,10,.68,18.17,1,24.7.19a7.48,7.48,0,0,0,6.55-6.21C338.36,288,324.06,278.63,312.11,281.22Z" style="fill:#407BFF;opacity:0.6000000000000001"></path><path d="M319.85,244.77c5,4.76,14.78,13.28,18.13,14.64C330.52,258.36,322.24,248.69,319.85,244.77Z" style="fill:#407BFF;opacity:0.30000000000000004"></path><path d="M311.52,235.83c5.19,8.95,13.72,22.23,17.18,25.71C319.64,255.22,312.46,240.49,311.52,235.83Z" style="fill:#407BFF;opacity:0.30000000000000004"></path><path d="M309.71,287.52c-5.38-7.85-17.58-8.17-21.52-4.46-6.57,6.16-19.18,17.18-26.66,25.76-9.37,10.75-21.84,44.12-26.18,55.44h0c-1.87,5.14-10.46,10.32-18.46,9.38-3.56-.42-1.13,4,1.41,4.63,6.36,1.68,6-.57,9.68.18,3.1.64,2.88,1.43,6.56,2.32,2.07.5,3.23-1.54,3.63-4s1.31-4.27,6.54-12.2h0a267.44,267.44,0,0,0,27.48-42c21.62-10.8,26-14.21,33.88-21.21C310.15,297.7,313.13,292.5,309.71,287.52Z" style="fill:#7f3e3b"></path><path d="M309.71,287.52a17,17,0,0,0-1.94-2.34,22.71,22.71,0,0,0-6.18,4c-6.63,6.1-19.07,17.5-23.18,21.67a17.89,17.89,0,0,0-5.35,11.24c20.87-10.46,25.28-13.87,33-20.79C310.15,297.71,313.13,292.5,309.71,287.52Z" style="opacity:0.2"></path><path d="M335.36,193.33c-1,5.28-2.07,14.95,1.62,18.47a39.18,39.18,0,0,0-18.11,10c-3.71-6.89,1.71-10,1.71-10,5.88-1.4,5.73-5.77,4.7-9.87Z" style="fill:#7f3e3b"></path><path d="M331.25,196.84l-6,5.09a16.6,16.6,0,0,1,.51,2.91c2.24-.33,5.33-2.8,5.57-5.15A7.92,7.92,0,0,0,331.25,196.84Z" style="opacity:0.2"></path><path d="M340.92,183.65c-2.06,8.58-2.75,12.26-7.83,15.95-7.66,5.56-17.54,1.17-18-7.85-.44-8.12,3-20.79,11.94-22.77S343,175.06,340.92,183.65Z" style="fill:#7f3e3b"></path><path d="M323.93,168.69c4.34,8,11.81,9.68,11.95,15.23s9.42,7.76,8.4.35S337.26,162.65,323.93,168.69Z" style="fill:#263238"></path><path d="M325,168.36c-.61,6.61,4.15,6.65,5.39,6.2-5.34,2.07-8.69-1.08-8-4.68A3.72,3.72,0,0,1,325,168.36Z" style="fill:#263238"></path><path d="M327.52,183.74c-.13.71-.61,1.22-1.07,1.13s-.73-.72-.61-1.42.6-1.22,1.07-1.13S327.64,183,327.52,183.74Z" style="fill:#263238"></path><path d="M318.8,182.33c-.12.7-.6,1.21-1.06,1.13s-.73-.72-.61-1.43.6-1.21,1.07-1.13S318.93,181.62,318.8,182.33Z" style="fill:#263238"></path><path d="M318.39,181l-1.61-.79S317.42,181.67,318.39,181Z" style="fill:#263238"></path><path d="M321,183.92A19.12,19.12,0,0,1,317.7,188a3.12,3.12,0,0,0,2.44.92Z" style="fill:#630f0f"></path><path d="M323.74,192.23a6.38,6.38,0,0,1-1.2-.11.2.2,0,0,1-.17-.24.2.2,0,0,1,.24-.17,5.67,5.67,0,0,0,4.95-1.38.21.21,0,0,1,.3,0,.21.21,0,0,1,0,.29A5.86,5.86,0,0,1,323.74,192.23Z" style="fill:#263238"></path><path d="M342,190.42a5.68,5.68,0,0,1-4.07,2.27c-2,.11-2.51-2.2-1.49-4.21.91-1.8,3.07-4,4.89-3.19S343.26,188.74,342,190.42Z" style="fill:#7f3e3b"></path><path d="M331.54,181.15a.48.48,0,0,1-.27-.2,3.35,3.35,0,0,0-2.51-1.72.42.42,0,0,1-.4-.44.43.43,0,0,1,.45-.4,4.14,4.14,0,0,1,3.19,2.14.41.41,0,0,1-.15.57A.43.43,0,0,1,331.54,181.15Z" style="fill:#263238"></path><path d="M316.44,178.14a.42.42,0,0,1-.28-.14.44.44,0,0,1,0-.6,4.23,4.23,0,0,1,3.73-1,.42.42,0,0,1,.28.53.41.41,0,0,1-.52.28,3.37,3.37,0,0,0-2.94.8A.4.4,0,0,1,316.44,178.14Z" style="fill:#263238"></path><path d="M327.1,182.39l-1.61-.79S326.13,183.08,327.1,182.39Z" style="fill:#263238"></path><path d="M334.17,267.82l-6.43-.9,3.42,10s5.6-1.59,8.26-5l-.61-1A6.47,6.47,0,0,0,334.17,267.82Z" style="fill:#7f3e3b"></path><path d="M324.51,273.18l1.53,3a2.83,2.83,0,0,0,3.59,1.34l1.53-.63-3.42-10-2.8,3.08A2.83,2.83,0,0,0,324.51,273.18Z" style="fill:#7f3e3b"></path><path d="M348.18,217.72c1.28,2.39,2.29,4.66,3.33,7s1.93,4.75,2.78,7.2a67,67,0,0,1,3.56,15.55c0,.71.1,1.41.12,2.14v.55a8.11,8.11,0,0,1,0,1,9.08,9.08,0,0,1-.3,1.7,15.94,15.94,0,0,1-2.18,4.66,39,39,0,0,1-5.31,6.3,79.53,79.53,0,0,1-12,9.63,2.77,2.77,0,0,1-3.62-4.13l.06-.07c3.15-3.61,6.34-7.33,9.11-11a40.33,40.33,0,0,0,3.53-5.5,7.24,7.24,0,0,0,.74-2.1c0-.08,0-.14,0-.11a.2.2,0,0,0,0,.07l0-.37c-.05-.5-.13-1-.21-1.54a70.07,70.07,0,0,0-3.81-13c-.83-2.19-1.75-4.36-2.67-6.53s-2-4.36-2.91-6.35l-.06-.11a5.56,5.56,0,0,1,9.92-5Z" style="fill:#7f3e3b"></path><path d="M332.29,287.54a22.21,22.21,0,0,0-30.8,1.7c-6.13,6.6-13.56,14.75-21,23.33-11.12,12.76-26.63,57.42-27.68,59.18l5,3.54a262.37,262.37,0,0,0,33.31-49c21.62-10.8,33.46-18.14,41.29-25.14a9.06,9.06,0,0,0-.11-13.62Z" style="fill:#7f3e3b"></path><path d="M259.56,381.52c-.1-2.48-1.16-5.28,4.07-13.21,0,0-8.32-3.14-9.36-.31-1.88,5.14-9.21,14.66-17.26,14.78-3.58.05.76,4,3.39,4.19,6.57.37,6-1.17,9.72-1.16a30.14,30.14,0,0,1,6.69.36C258.91,386.56,259.67,384,259.56,381.52Z" style="fill:#7f3e3b"></path><path d="M342.18,212.24c6.39.84,10.68,8,14.57,19.21a32.32,32.32,0,0,1-14.57,13.7c-3.31-6.5-6.6-15.22-7.21-20S335.23,211.32,342.18,212.24Z" style="fill:#407BFF"></path><path d="M342.18,212.24c6.39.84,10.68,8,14.57,19.21a32.32,32.32,0,0,1-14.57,13.7c-3.31-6.5-6.6-15.22-7.21-20S335.23,211.32,342.18,212.24Z" style="fill:#fff;opacity:0.4"></path><path d="M347.32,390.23h0a.84.84,0,0,1-.69-1l15.61-89.82a.84.84,0,0,1,1-.69h0a.85.85,0,0,1,.69,1l-15.61,89.81A.84.84,0,0,1,347.32,390.23Z" style="fill:#e0e0e0"></path><path d="M351.35,299.52h0a.85.85,0,0,1,.84-.84h10.92a.84.84,0,0,1,.84.84h0a.83.83,0,0,1-.84.84H352.19A.84.84,0,0,1,351.35,299.52Z" style="fill:#e0e0e0"></path><rect x="350.86" y="294.85" width="1.68" height="11.03" rx="0.79" transform="translate(703.39 600.74) rotate(180)" style="fill:#e0e0e0"></rect><path d="M356.75,360.6a4.29,4.29,0,1,1-4.28-4.28A4.28,4.28,0,0,1,356.75,360.6Z" style="fill:#fff"></path><path d="M353.77,299.52a2.07,2.07,0,1,1-2.07-2.07A2.07,2.07,0,0,1,353.77,299.52Z" style="fill:#fff"></path><path d="M334.05,298.92a10.07,10.07,0,0,1-1.47-.7,2.41,2.41,0,0,1,.71-4.44c6.27-1.37,18.07-4.11,23.16-6-1.73,4.73-12.85,10.68-16.48,11.39A11.36,11.36,0,0,1,334.05,298.92Z"></path><path d="M334.05,298.92c4.27,1.21,8.47-2.32,8.54-7.18a2.76,2.76,0,0,1,1.73-2.52c4.36-1.74,13.65-4.41,18.16-5.67a2.28,2.28,0,0,1,2.91,2.15c.06,3-.8,7.36-6,8.81C342.35,299.27,337.88,300.38,334.05,298.92Z" style="fill:#263238"></path></g><g id="freepik--speech-bubble--inject-32"><circle cx="233.86" cy="95.56" r="46.26" transform="translate(87.12 301.21) rotate(-76.72)" style="fill:#407BFF"></circle><polygon points="193.74 102.58 174.18 123.43 202.6 124.79 193.74 102.58" style="fill:#407BFF"></polygon><circle cx="233.86" cy="95.56" r="40.73" transform="translate(87.12 301.21) rotate(-76.72)" style="fill:#fff"></circle><path d="M206,88.27a53.63,53.63,0,0,1,7.84,3.25,78.36,78.36,0,0,1,7.3,4.15c1.17.77,2.35,1.53,3.48,2.37s2.26,1.69,3.36,2.57a59.57,59.57,0,0,1,6.34,5.92l-7.84.53a76.39,76.39,0,0,1,7.23-9.83,103.39,103.39,0,0,1,8.34-8.53,102.2,102.2,0,0,1,9.27-7.43,66.43,66.43,0,0,1,10.32-6.14c-2,3.55-4.21,6.8-6.46,10s-4.57,6.28-6.88,9.33l-7,9c-2.3,3-4.54,5.93-6.62,8.88l-3.86,5.46-4-4.93c-1.56-1.94-3.26-3.89-5-5.86l-5.33-6c-1.79-2-3.6-4-5.37-6.17S207.71,90.61,206,88.27Z" style="fill:#407BFF"></path></g></svg>