<svg xmlns="http://www.w3.org/2000/svg" viewBox="0 0 500 500"><g id="freepik--background-complete--inject-35"><rect y="382.4" width="500" height="0.25" style="fill:#ebebeb"></rect><rect x="131.47" y="397.82" width="33.12" height="0.25" style="fill:#ebebeb"></rect><rect x="250.15" y="395.11" width="8.69" height="0.25" style="fill:#ebebeb"></rect><rect x="52.46" y="390.89" width="19.19" height="0.25" style="fill:#ebebeb"></rect><rect x="389.7" y="389.21" width="26.08" height="0.25" style="fill:#ebebeb"></rect><rect x="357.35" y="389.21" width="23.44" height="0.25" style="fill:#ebebeb"></rect><rect x="356.23" y="401.21" width="93.68" height="0.25" style="fill:#ebebeb"></rect><path d="M237,337.8H43.91a5.71,5.71,0,0,1-5.7-5.71V60.66A5.71,5.71,0,0,1,43.91,55H237a5.71,5.71,0,0,1,5.71,5.71V332.09A5.71,5.71,0,0,1,237,337.8ZM43.91,55.2a5.46,5.46,0,0,0-5.45,5.46V332.09a5.46,5.46,0,0,0,5.45,5.46H237a5.47,5.47,0,0,0,5.46-5.46V60.66A5.47,5.47,0,0,0,237,55.2Z" style="fill:#ebebeb"></path><path d="M453.31,337.8H260.21a5.72,5.72,0,0,1-5.71-5.71V60.66A5.72,5.72,0,0,1,260.21,55h193.1A5.71,5.71,0,0,1,459,60.66V332.09A5.71,5.71,0,0,1,453.31,337.8ZM260.21,55.2a5.47,5.47,0,0,0-5.46,5.46V332.09a5.47,5.47,0,0,0,5.46,5.46h193.1a5.47,5.47,0,0,0,5.46-5.46V60.66a5.47,5.47,0,0,0-5.46-5.46Z" style="fill:#ebebeb"></path><rect x="61.02" y="80.33" width="223.04" height="137.88" style="fill:#f0f0f0"></rect><rect x="284.07" y="80.33" width="1.35" height="137.88" transform="translate(569.48 298.55) rotate(180)" style="fill:#e6e6e6"></rect><rect x="108.79" y="42.94" width="127.5" height="212.67" transform="translate(321.82 -23.27) rotate(90)" style="fill:#fafafa"></rect><circle cx="143" cy="149.27" r="41.85" transform="translate(-63.67 144.83) rotate(-45)" style="fill:#ebebeb"></circle><path d="M202.09,191.56a42.29,42.29,0,1,1,42.28-42.29A42.33,42.33,0,0,1,202.09,191.56Zm0-83.7a41.42,41.42,0,1,0,41.42,41.41A41.46,41.46,0,0,0,202.09,107.86Z" style="fill:#e0e0e0"></path><rect x="46.76" y="263.16" width="32.98" height="119.24" transform="translate(126.5 645.56) rotate(180)" style="fill:#e6e6e6"></rect><polygon points="57.23 382.4 46.76 382.4 46.76 365.94 68.21 365.94 57.23 382.4" style="fill:#fafafa"></polygon><rect x="119.02" y="263.16" width="32.98" height="119.24" transform="translate(271.02 645.56) rotate(180)" style="fill:#e6e6e6"></rect><rect x="46.76" y="263.16" width="81.4" height="113.58" transform="translate(174.93 639.89) rotate(180)" style="fill:#fafafa"></rect><polygon points="117.69 382.4 128.16 382.4 128.16 365.94 106.71 365.94 117.69 382.4" style="fill:#fafafa"></polygon><rect x="54.89" y="305.48" width="65.15" height="28.42" transform="translate(174.93 639.38) rotate(180)" style="fill:#f0f0f0"></rect><rect x="54.89" y="339.98" width="65.15" height="28.42" transform="translate(174.93 708.38) rotate(180)" style="fill:#f0f0f0"></rect><path d="M74.69,303h25.55a4.12,4.12,0,0,1,4.12,4.12v1.38a0,0,0,0,1,0,0H70.57a0,0,0,0,1,0,0v-1.38A4.12,4.12,0,0,1,74.69,303Z" transform="translate(174.93 611.54) rotate(180)" style="fill:#fafafa"></path><rect x="54.89" y="270.98" width="65.15" height="28.42" transform="translate(174.93 570.39) rotate(180)" style="fill:#f0f0f0"></rect><path d="M74.69,268.52h25.55a4.12,4.12,0,0,1,4.12,4.12V274a0,0,0,0,1,0,0H70.57a0,0,0,0,1,0,0v-1.38A4.12,4.12,0,0,1,74.69,268.52Z" transform="translate(174.93 542.54) rotate(180)" style="fill:#fafafa"></path><path d="M74.69,337.52h25.55a4.12,4.12,0,0,1,4.12,4.12V343a0,0,0,0,1,0,0H70.57a0,0,0,0,1,0,0v-1.38A4.12,4.12,0,0,1,74.69,337.52Z" transform="translate(174.93 680.53) rotate(180)" style="fill:#fafafa"></path><rect x="140.46" y="275.75" width="62.38" height="106.65" rx="10.69" style="fill:#f5f5f5"></rect><rect x="159.14" y="275.75" width="62.38" height="106.65" rx="10.69" style="fill:#e6e6e6"></rect><rect x="168.12" y="332.67" width="237.1" height="49.72" rx="5.3" style="fill:#f0f0f0"></rect><path d="M421.38,240.8H228.6c-6.07,0-11.4,5.24-11.91,11.71l-5.1,64.85c-.51,6.47,4,11.71,10.06,11.71H414.43c6.07,0,11.4-5.24,11.91-11.71l5.1-64.85C432,246,427.45,240.8,421.38,240.8Z" style="fill:#ebebeb"></path><path d="M406.47,240.8H213.69c-6.06,0-11.39,5.24-11.9,11.71l-5.11,64.85c-.51,6.47,4,11.71,10.07,11.71H399.53c6.06,0,11.4-5.24,11.9-11.71l5.11-64.85C417.05,246,412.54,240.8,406.47,240.8Z" style="fill:#fafafa"></path><path d="M298.72,317.41l-1.23-.1,5.11-64.85c.53-6.77,6.15-12.28,12.52-12.28v1.23c-5.75,0-10.81,5-11.3,11.15Z" style="fill:#f0f0f0"></path><rect x="364.38" y="275.75" width="62.38" height="106.65" rx="10.69" style="fill:#f5f5f5"></rect><rect x="161.98" y="309.66" width="214.75" height="27.54" rx="6.34" style="fill:#f5f5f5"></rect><path d="M275.5,337.82a7,7,0,0,1-6.76-7.16V316.2A7,7,0,0,1,275.5,309v1.24A5.74,5.74,0,0,0,270,316.2v14.46a5.75,5.75,0,0,0,5.53,5.93Z" style="fill:#ebebeb"></path><rect x="383.06" y="275.75" width="62.38" height="106.65" rx="10.69" style="fill:#e6e6e6"></rect><path d="M310.1,236.68c-12,2.32-13.93,35-14.79,47.32s9.94-.46,16.66.93,8.91,7.06,16.42,4.48S339,285,344.18,286.83s14.23,2.5,15.17-1c.86-3.22,3.31-37.12,8.08-43.91a2.38,2.38,0,0,0-.62-3.35C357.75,232.74,320.93,234.59,310.1,236.68Z" style="fill:#ebebeb"></path><rect x="365.38" y="101.18" width="64.26" height="42.55" transform="translate(795.02 244.91) rotate(180)" style="fill:#e0e0e0"></rect><rect x="361.51" y="101.18" width="66.45" height="42.55" transform="translate(789.46 244.91) rotate(180)" style="fill:#f5f5f5"></rect><rect x="380.91" y="94.8" width="27.64" height="55.31" transform="translate(272.27 517.18) rotate(-90)" style="fill:#fff"></rect><rect x="331.31" y="153.41" width="64.26" height="42.55" transform="translate(726.88 349.37) rotate(180)" style="fill:#e0e0e0"></rect><rect x="327.44" y="153.41" width="66.45" height="42.55" transform="translate(721.32 349.37) rotate(180)" style="fill:#f5f5f5"></rect><rect x="346.84" y="147.03" width="27.64" height="55.31" transform="translate(185.98 535.34) rotate(-90)" style="fill:#fff"></rect></g><g id="freepik--Shadow--inject-35"><ellipse id="freepik--path--inject-35" cx="250" cy="416.24" rx="193.89" ry="11.32" style="fill:#f5f5f5"></ellipse></g><g id="freepik--Character--inject-35"><path d="M253.25,115.15c2.29,1.69-2.84,6.63-2.21,8.81.44,1.5,2,.21,2,.21s-.44,4.66-3.91,2.36C244,123.12,250,112.72,253.25,115.15Z" style="fill:#263238"></path><path d="M252.65,108.88c5.16,2.29,0,7.21,1.49,9,1,1.2,1.92-.61,1.92-.61s1.46,4.46-2.64,3.74C247.32,119.89,248.91,107.22,252.65,108.88Z" style="fill:#263238"></path><path d="M244.24,137.42c-9.38-1.57-25.17.58-31.15,16.25s-3.32,41.55-1.73,48.79c4.64,21,60.42,6.65,66.42-7.68S270.14,141.75,244.24,137.42Z" style="fill:#407BFF"></path><path d="M231.89,214.57c-1.54,0-3-.06-4.48-.19-10-.9-16-4.91-17.51-11.59-1.61-7.31-4.3-33.71,1.79-49.66,6.42-16.83,23.64-18.72,32.8-17.19a1.5,1.5,0,0,1-.5,3c-2.27-.38-22.44-3.19-29.5,15.3-5.84,15.32-3.22,40.86-1.66,47.94,1.47,6.67,8.88,8.71,14.85,9.25,17.57,1.57,44.89-8.06,48.71-17.19a1.5,1.5,0,1,1,2.77,1.16C275.12,205,250.81,214.57,231.89,214.57Z" style="fill:#407BFF"></path><path d="M231.89,214.57c-1.54,0-3-.06-4.48-.19-10-.9-16-4.91-17.51-11.59-1.61-7.31-4.3-33.71,1.79-49.66,6.42-16.83,23.64-18.72,32.8-17.19a1.5,1.5,0,0,1-.5,3c-2.27-.38-22.44-3.19-29.5,15.3-5.84,15.32-3.22,40.86-1.66,47.94,1.47,6.67,8.88,8.71,14.85,9.25,17.57,1.57,44.89-8.06,48.71-17.19a1.5,1.5,0,1,1,2.77,1.16C275.12,205,250.81,214.57,231.89,214.57Z" style="fill:#fff;opacity:0.6000000000000001"></path><polygon points="221.9 404.67 214.11 402.86 217.16 384.64 224.94 386.45 221.9 404.67" style="fill:#ce7a63"></polygon><path d="M222.31,402.22,214.43,401c-1.34,4-7.85,4.92-15.22,4.8-1.45,0-2.07,2,1.14,2.69s9.59,1.73,12,2.22c3.86.8,4.77,1.23,7.83,1.86,1.12.23,2.42-.92,2.34-2.68A23.94,23.94,0,0,1,222.31,402.22Z" style="fill:#ce7a63"></path><path d="M222.79,413.92l-28.28-5.85c-2.2-.46-1-6.46,8-5s6.87,6.48,6.87,6.48l11.91,2.79a1.75,1.75,0,0,1,1.15.87Z" style="fill:#407BFF"></path><polygon points="224.95 386.46 217.15 384.65 215.59 394.04 223.38 395.85 224.95 386.46" style="opacity:0.2"></polygon><path d="M236.64,205.54s-10.26,65-13.28,87.61c-3.3,24.81-10.27,97.37-10.27,97.37l14.12,3.89S240.58,324.1,246.09,300c6-26.18,19.07-94.44,19.07-94.44Z" style="fill:#407BFF"></path><path d="M236.64,205.54s-10.26,65-13.28,87.61c-3.3,24.81-10.27,97.37-10.27,97.37l14.12,3.89S240.58,324.1,246.09,300c6-26.18,19.07-94.44,19.07-94.44Z" style="fill:#fff;opacity:0.30000000000000004"></path><path d="M253,231.67c-5.4,13.76-5.66,39.5-2.37,47.26,3.26-15.74,7-34.58,9.85-49.23C259.38,226,256.27,223.29,253,231.67Z" style="fill:#407BFF;opacity:0.5"></path><polygon points="227.56 394.69 212.44 390.53 212.69 384.39 229.72 390.26 227.56 394.69" style="fill:#407BFF"></polygon><polygon points="280.96 408.09 272.99 408.09 271.8 389.61 279.78 389.61 280.96 408.09" style="fill:#ce7a63"></polygon><path d="M280.82,405.81l-7.94.55c-1.08,3-6.8,6.1-14,7.47-1.43.27-1.62,2.41,1.65,2.41s9.75-.25,12.17-.25c3.94,0,4.92.23,8,.23,1.14,0,2.19-1.39,1.75-3.09A23.83,23.83,0,0,1,280.82,405.81Z" style="fill:#ce7a63"></path><path d="M283.59,417H254.71c-2.25,0-2.25-6.12,6.79-6.5s8,5,8,5l12.23.31a1.79,1.79,0,0,1,1.3.62Z" style="fill:#407BFF"></path><polygon points="279.79 389.62 271.8 389.62 272.42 399.14 280.4 399.14 279.79 389.62" style="opacity:0.2"></polygon><path d="M252.22,205.54s-.27,60.57,1.2,83.41C255,314,269,396.84,269,396.84h14.61S276.33,316,277,291.22c.74-26.88,2.31-85.68,2.31-85.68Z" style="fill:#407BFF"></path><path d="M252.22,205.54s-.27,60.57,1.2,83.41C255,314,269,396.84,269,396.84h14.61S276.33,316,277,291.22c.74-26.88,2.31-85.68,2.31-85.68Z" style="fill:#fff;opacity:0.30000000000000004"></path><polygon points="284.18 396.84 268.39 396.84 267.47 391.3 284.9 392.17 284.18 396.84" style="fill:#407BFF"></polygon><path d="M232.57,153c-.73,4.35-1.59,8.67-2.47,13s-1.84,8.62-2.82,12.92l-.75,3.22-.38,1.61-.22.95a12.37,12.37,0,0,1-.57,1.68,7.38,7.38,0,0,1-1.91,2.64,6,6,0,0,1-1.07.74,6.17,6.17,0,0,1-1.34.55,6.53,6.53,0,0,1-1.42.22,6.56,6.56,0,0,1-4.07-1.26,9.32,9.32,0,0,1-1.3-1.12,17.05,17.05,0,0,1-2.56-3.57,46.83,46.83,0,0,1-3-6.51,57.21,57.21,0,0,1-2.06-6.59L212.1,169c2.57,3.45,5.06,7.18,7.56,10.1a9.56,9.56,0,0,0,1.61,1.54s.1,0,0-.08a2.54,2.54,0,0,0-1.32-.55,4.25,4.25,0,0,0-.83,0,4,4,0,0,0-1,.15,4.47,4.47,0,0,0-1,.39,3.94,3.94,0,0,0-.74.5,4.12,4.12,0,0,0-1,1.27c-.08.13-.09.18-.1.1a.26.26,0,0,1,0-.07l0-.2.06-.41.23-1.63.49-3.27q1-6.54,2.12-13c.76-4.33,1.55-8.67,2.47-13Z" style="fill:#ce7a63"></path><path d="M238.24,144c-4.32-6.93-12.57-5.92-17.13,1C218,149.72,216,158.22,216,163.17l15.34,6.61C235.42,162.73,241.12,148.61,238.24,144Z" style="fill:#263238"></path><path d="M203.62,161.57l-.89-.37a2.64,2.64,0,0,0-3.63,2l-.58,3.73a2.68,2.68,0,0,0,1.24,2.68l4.69,2.87s6,4.17,7.82.93l.49-2.8a2,2,0,0,0-.52-1.71l-3.83-4.06A14.2,14.2,0,0,0,203.62,161.57Z" style="fill:#ce7a63"></path><path d="M224,147.61a280.06,280.06,0,0,1,12.67,57.93h42.68c-1-30.87-6.62-47.61-10.71-58.88a12.11,12.11,0,0,0-10-8,124.17,124.17,0,0,0-29.68.83A6.17,6.17,0,0,0,224,147.61Z" style="fill:#263238"></path><path d="M267.91,143.65c1,1,1.88,1.9,2.77,2.89s1.74,1.93,2.6,2.91c1.7,2,3.33,4,4.9,6.08s3.1,4.22,4.51,6.46a78.13,78.13,0,0,1,4,6.92l.9,1.82.12.23.22.5a7.59,7.59,0,0,1,.41,1.17,7.86,7.86,0,0,1,.19,3.24,7.39,7.39,0,0,1-1.42,3.24,8,8,0,0,1-1.93,1.77,11,11,0,0,1-3.09,1.37,21.77,21.77,0,0,1-4.7.73c-1.44.08-2.81.08-4.16,0a71.23,71.23,0,0,1-7.85-.77,74.5,74.5,0,0,1-7.63-1.5l.65-6c4.87-.26,9.86-.45,14.48-1,1.15-.14,2.28-.32,3.32-.54a13.6,13.6,0,0,0,2.64-.76c.29-.13.49-.3.29-.23a2.09,2.09,0,0,0-.57.5,3.39,3.39,0,0,0-.67,1.53,3.22,3.22,0,0,0,0,1.39c0,.11.07.25.07.29l0,.08-.11-.19-.9-1.46a114,114,0,0,0-8.32-11.42c-1.5-1.87-3.08-3.68-4.64-5.5s-3.25-3.63-4.76-5.28Z" style="fill:#ce7a63"></path><path d="M261.05,139.62c-8.13.7-11,7.32-5.5,16a152,152,0,0,0,10.56,14.16l14.79-12.26C276.47,150.65,266.49,139.15,261.05,139.62Z" style="fill:#263238"></path><path d="M260.1,175.18l-8.46-4.55,1.35,10s7,2,7.7-1.64Z" style="fill:#ce7a63"></path><path d="M244.89,173.33l.72,4.06a2.47,2.47,0,0,0,1.9,2l5.48,1.23-1.35-9.89-4.15-.28A2.47,2.47,0,0,0,244.89,173.33Z" style="fill:#ce7a63"></path><path d="M234.06,138.87c5.27-1.25,6.6-4.67,6.21-8.26a21.52,21.52,0,0,0-.44-2.67l6.57-5.49,4.82-4c-1.3,5.84-2.77,15.91,1.21,19.81a139.51,139.51,0,0,1-13.45,6.3C234.06,141.94,234.06,138.87,234.06,138.87Z" style="fill:#ce7a63"></path><path d="M239.83,127.94a21.52,21.52,0,0,1,.44,2.67c2.47-.49,6.17-2.69,6.51-5.47a11.23,11.23,0,0,0-.38-2.69Z" style="opacity:0.2"></path><path d="M228.67,104.22c-2.83,2.61,2.21,7.48.85,8.55A2.14,2.14,0,0,1,227,113s.24,3.43,4,1.59S233.06,100.17,228.67,104.22Z" style="fill:#263238"></path><path d="M250.73,106.64c1,7.89,2,12.44-1.2,17.28-4.74,7.27-14.93,5.75-18.22-1.63-3-6.63-4.06-18.42,2.91-23.14A10.5,10.5,0,0,1,250.73,106.64Z" style="fill:#ce7a63"></path><path d="M250.5,111.94c-2.39,1-5.06-2-3.06-7.77-4.44.61-10.38,1.11-12.11-1.28-3.39,3.39-6.27,4.78-9.39,2.83s2.06-6.83-.33-8.5c1.45-.44,3.06,1.06,3.06,1.06s3.39-5.72,8.16-5.28.84-3.11.84-3.11,4.44.61,3.94,2.5c2.39-.5,11.54,1.11,10.3,5.11,3.26.11,7.11,3.94,5,6.22s-.15,4.14,1.2,2.9c-1.42,2.38-2.89,1.71-2.89,1.71S256.17,115.06,250.5,111.94Z" style="fill:#263238"></path><path d="M281.56,151.38a6,6,0,0,1-.46-1.26,4,4,0,0,0-.54-1.34,3.88,3.88,0,0,0-1-.84,6.22,6.22,0,0,1-1.15-.91,6,6,0,0,1-.78-1.24,4.16,4.16,0,0,0-.73-1.13,4.32,4.32,0,0,0-1.18-.69,5.49,5.49,0,0,1-1.27-.71,5.75,5.75,0,0,1-1-1.17,4.08,4.08,0,0,0-.84-1,4.23,4.23,0,0,0-1.34-.54,5.76,5.76,0,0,1-1.27-.49,6.64,6.64,0,0,1-1.23-1,3.57,3.57,0,0,0-.93-.74l.37-.92a4.15,4.15,0,0,1,1.26,1,5.73,5.73,0,0,0,1,.86,4.81,4.81,0,0,0,1,.39,5,5,0,0,1,1.64.69,4.79,4.79,0,0,1,1.08,1.21,4.63,4.63,0,0,0,.81,1,4.71,4.71,0,0,0,1.05.57,5.28,5.28,0,0,1,1.45.87,5,5,0,0,1,.93,1.4,5.32,5.32,0,0,0,.63,1,5,5,0,0,0,1,.74,4.65,4.65,0,0,1,1.29,1.09,4.8,4.8,0,0,1,.69,1.66,4.78,4.78,0,0,0,.38,1.05Z" style="fill:#407BFF"></path><path d="M278.13,142.41a3.9,3.9,0,0,1-.51-.94,2.77,2.77,0,0,0-.5-.85,2.42,2.42,0,0,0-.82-.42,4,4,0,0,1-1-.53,3.64,3.64,0,0,1-.75-.87,2.54,2.54,0,0,0-.62-.7,2.66,2.66,0,0,0-.89-.29,3.73,3.73,0,0,1-1.1-.36,4,4,0,0,1-.9-.78,2.56,2.56,0,0,0-.68-.59,2.7,2.7,0,0,0-1-.17,3.86,3.86,0,0,1-1.06-.18,4.46,4.46,0,0,1-1.07-.64,2.31,2.31,0,0,0-.7-.41l.21-1a2.77,2.77,0,0,1,1.08.58,4,4,0,0,0,.83.5,2.84,2.84,0,0,0,.78.12,3.53,3.53,0,0,1,1.35.27,3.3,3.3,0,0,1,1,.8,2,2,0,0,0,1.49.85,3.48,3.48,0,0,1,1.23.43,3.54,3.54,0,0,1,.89,1,2.8,2.8,0,0,0,.55.65,2.91,2.91,0,0,0,.77.38,3.5,3.5,0,0,1,1.15.63,3.39,3.39,0,0,1,.73,1.19,3,3,0,0,0,.37.7Z" style="fill:#407BFF"></path><path d="M209.89,212.1a3.52,3.52,0,0,1-.45-1.52,4.87,4.87,0,0,0-.33-1.34,3.76,3.76,0,0,0-.72-.84,4.49,4.49,0,0,1-1.1-1.45,4,4,0,0,1-.15-1.65,4,4,0,0,0-.08-1.27,3.73,3.73,0,0,0-.62-1,4.18,4.18,0,0,1-.85-1.51,4,4,0,0,1,.08-1.72,3.71,3.71,0,0,0,.1-1.21,4,4,0,0,0-.47-1.12,4,4,0,0,1-.58-1.62,4.15,4.15,0,0,1,.42-1.77,3.66,3.66,0,0,0,.33-1.08l1,.08a4.84,4.84,0,0,1-.4,1.38,2.16,2.16,0,0,0,.12,2.54,4.52,4.52,0,0,1,.57,1.44,4.68,4.68,0,0,1-.11,1.54,3.29,3.29,0,0,0-.08,1.3,3.46,3.46,0,0,0,.66,1.14,4.59,4.59,0,0,1,.79,1.33,4.79,4.79,0,0,1,.12,1.6,3.47,3.47,0,0,0,.08,1.24,3.63,3.63,0,0,0,.87,1.1,4.27,4.27,0,0,1,.92,1.12,5.69,5.69,0,0,1,.42,1.63,2.65,2.65,0,0,0,.29,1.1Z" style="fill:#407BFF"></path><path d="M209,215.9a2.7,2.7,0,0,1-.58-1.08,3.46,3.46,0,0,0-.41-.89,2.58,2.58,0,0,0-.59-.51,3.4,3.4,0,0,1-1-1,3.13,3.13,0,0,1-.36-1.22,2.92,2.92,0,0,0-.22-.86,2.85,2.85,0,0,0-.55-.64,3.26,3.26,0,0,1-.82-1,3.13,3.13,0,0,1-.2-1.3,3.08,3.08,0,0,0-.09-.85,2.59,2.59,0,0,0-.46-.73,3.12,3.12,0,0,1-.63-1.16,3.23,3.23,0,0,1,.05-1.39,3,3,0,0,0,.09-.8l1-.1a3.88,3.88,0,0,1-.09,1.08,2.42,2.42,0,0,0-.07,1,2.48,2.48,0,0,0,.46.78,4.12,4.12,0,0,1,.61,1,3.88,3.88,0,0,1,.14,1.16,2.55,2.55,0,0,0,.11.92,2.58,2.58,0,0,0,.6.72,3.67,3.67,0,0,1,.75.9,3.93,3.93,0,0,1,.32,1.17,2.63,2.63,0,0,0,.22.85,2.7,2.7,0,0,0,.74.67,3.55,3.55,0,0,1,.82.73,4.21,4.21,0,0,1,.54,1.14,2.3,2.3,0,0,0,.34.72Z" style="fill:#407BFF"></path><path d="M282.71,238.25a3.53,3.53,0,0,1,0-1.59,4.59,4.59,0,0,0,0-1.38,3.69,3.69,0,0,0-.47-1,4.3,4.3,0,0,1-.68-1.69,4,4,0,0,1,.28-1.63,4.05,4.05,0,0,0,.26-1.24,3.79,3.79,0,0,0-.34-1.15,4.38,4.38,0,0,1-.42-1.68,4.07,4.07,0,0,1,.53-1.63,4.05,4.05,0,0,0,.41-1.14,3.85,3.85,0,0,0-.15-1.21,4,4,0,0,1-.14-1.71,4.21,4.21,0,0,1,.87-1.6,3.69,3.69,0,0,0,.61-.95l.94.33a4.56,4.56,0,0,1-.75,1.23,3.27,3.27,0,0,0-.69,1.19,3.35,3.35,0,0,0,.13,1.29,4.43,4.43,0,0,1,.18,1.54,4.7,4.7,0,0,1-.51,1.46,3.54,3.54,0,0,0-.43,1.24,3.34,3.34,0,0,0,.35,1.27,4.47,4.47,0,0,1,.41,1.48,4.63,4.63,0,0,1-.31,1.58,3.28,3.28,0,0,0-.24,1.22,3.49,3.49,0,0,0,.55,1.29,4.46,4.46,0,0,1,.59,1.32,5.6,5.6,0,0,1,0,1.69,2.94,2.94,0,0,0,0,1.14Z" style="fill:#407BFF"></path><path d="M287.67,244a2.88,2.88,0,0,1-.27-1.2,3.34,3.34,0,0,0-.16-1,2.72,2.72,0,0,0-.44-.64,3.54,3.54,0,0,1-.72-1.19,3.21,3.21,0,0,1,0-1.27,3.06,3.06,0,0,0,0-.9,3.29,3.29,0,0,0-.37-.76,3.36,3.36,0,0,1-.52-1.22,3.28,3.28,0,0,1,.15-1.3,2.79,2.79,0,0,0,.14-.85,2.92,2.92,0,0,0-.25-.82,3.3,3.3,0,0,1-.31-1.28,3.4,3.4,0,0,1,.42-1.34,2.68,2.68,0,0,0,.29-.74l1,.16a3.57,3.57,0,0,1-.38,1,2.52,2.52,0,0,0-.32.93,2.43,2.43,0,0,0,.24.88,3.78,3.78,0,0,1,.32,1.13,3.41,3.41,0,0,1-.17,1.15,2.68,2.68,0,0,0-.13.92,2.64,2.64,0,0,0,.39.85,3.64,3.64,0,0,1,.48,1.06,3.57,3.57,0,0,1,0,1.22,2.58,2.58,0,0,0,0,.88,2.72,2.72,0,0,0,.53.84,3.42,3.42,0,0,1,.6.91,4.15,4.15,0,0,1,.23,1.25,2.13,2.13,0,0,0,.14.78Z" style="fill:#407BFF"></path><circle cx="241.35" cy="114.93" r="3.44" style="fill:#ba4d3c;opacity:0.4"></circle><path d="M229.52,113.43a2.73,2.73,0,0,0-.41,0,29.15,29.15,0,0,0,1.38,6.7,3.43,3.43,0,0,0-1-6.73Z" style="fill:#ba4d3c;opacity:0.4"></path><path d="M255.08,113.28A8.43,8.43,0,0,1,252,118.1c-2,1.47-3.51-.31-3.4-2.82.1-2.26,1.26-5.75,3.47-6.21S255.62,110.87,255.08,113.28Z" style="fill:#ce7a63"></path><path d="M239.33,111.45c.12.64-.12,1.22-.53,1.31s-.84-.35-1-1,.12-1.22.53-1.31S239.21,110.82,239.33,111.45Z" style="fill:#263238"></path><path d="M231.93,112.86c.12.63-.12,1.22-.53,1.3s-.84-.35-1-1,.12-1.22.53-1.31S231.81,112.22,231.93,112.86Z" style="fill:#263238"></path><path d="M234.83,112.77a24.32,24.32,0,0,1-1.64,5.23,3.37,3.37,0,0,0,2.76,0Z" style="fill:#ba4d3c"></path><path d="M237.67,120.94l-14.88-4a1.11,1.11,0,0,0-1.31.62h0a1.12,1.12,0,0,0,.79,1.56l14,3Z" style="fill:#407BFF;opacity:0.30000000000000004"></path><path d="M222.37,118.6a.63.63,0,0,1-.43-.33.64.64,0,0,1,0-.54.63.63,0,0,1,.57-.36l.16,0,14.6,4-.44.36Z" style="fill:#407BFF;opacity:0.4"></path><path d="M227.28,118.64a.43.43,0,0,0-.54.4.51.51,0,0,0,.4.59l9.68,2.08.44-.36Z" style="fill:#ba4d3c"></path><path d="M240.08,120.11A5.54,5.54,0,0,0,236.2,122a.2.2,0,0,0,0,.27.18.18,0,0,0,.26,0,5.29,5.29,0,0,1,4.31-1.78.18.18,0,0,0,.2-.18.2.2,0,0,0-.18-.2A6.2,6.2,0,0,0,240.08,120.11Z" style="fill:#263238"></path><path d="M238.21,106.63a.35.35,0,0,0-.17.06.37.37,0,0,0-.08.53,3.65,3.65,0,0,0,3,1.57.37.37,0,0,0,.34-.41.38.38,0,0,0-.4-.35,2.86,2.86,0,0,1-2.38-1.25A.35.35,0,0,0,238.21,106.63Z" style="fill:#263238"></path><path d="M231,107.86a.4.4,0,0,0-.3.19,3.11,3.11,0,0,1-2.26,1.61.38.38,0,0,0-.35.41.39.39,0,0,0,.4.35h0a3.8,3.8,0,0,0,2.85-2,.38.38,0,0,0-.13-.52A.44.44,0,0,0,231,107.86Z" style="fill:#263238"></path><path d="M218.54,157.89H204.81a.62.62,0,0,0-.62.69l.07.78c-2.62.39-4.66,3.31-4.66,6.85,0,3.8,2.37,6.89,5.28,6.89a4.39,4.39,0,0,0,.72-.07l.23,2.3a.62.62,0,0,0,.62.56H216.9a.62.62,0,0,0,.63-.56l1.63-16.75A.62.62,0,0,0,218.54,157.89Zm-13.66,13.33c-1.84,0-3.39-2.3-3.39-5,0-2.51,1.32-4.63,3-5l1,9.87A2,2,0,0,1,204.88,171.22Z" style="fill:#407BFF"></path><path d="M218.54,157.89H204.81a.62.62,0,0,0-.62.69l.07.78c-2.62.39-4.66,3.31-4.66,6.85,0,3.8,2.37,6.89,5.28,6.89a4.39,4.39,0,0,0,.72-.07l.23,2.3a.62.62,0,0,0,.62.56H216.9a.62.62,0,0,0,.63-.56l1.63-16.75A.62.62,0,0,0,218.54,157.89Zm-13.66,13.33c-1.84,0-3.39-2.3-3.39-5,0-2.51,1.32-4.63,3-5l1,9.87A2,2,0,0,1,204.88,171.22Z" style="opacity:0.30000000000000004"></path><path d="M208.42,153.25c-1.29-2.33-3.09-5.58-1.92-10.33s2.87-6.67.85-12.31c4.82,5.39,1.81,10.64,1.23,13.56C207.67,148.75,209,149.38,208.42,153.25Z" style="fill:#407BFF;opacity:0.2"></path><path d="M212.07,128.26a7.68,7.68,0,0,1,1.93,5.8c-.3,2.83-1.13,4.07.48,7.15-3.2-2.72-1.88-6-1.78-7.71C212.86,130.79,212.07,130.53,212.07,128.26Z" style="fill:#407BFF;opacity:0.2"></path><path d="M258.89,137.44c-12.06-1.73-24.44,6.1-18.54,14.42,13,18.32,13.09,30.92,26.47,40.47,10,7.16,20.37,16.87,22.07-13.11C289.84,162.46,279,140.33,258.89,137.44Z" style="fill:#407BFF"></path><path d="M278.63,201.16c-3.49,0-7.1-3-10.07-5.51-.95-.8-1.84-1.55-2.61-2.1-8.25-5.89-11.72-13.05-15.73-21.34a127.08,127.08,0,0,0-11.1-19.48,8.18,8.18,0,0,1-1.11-8.38c1.84-4.23,7.33-7.53,14-8.42a1.5,1.5,0,0,1,.39,3c-5.55.73-10.23,3.4-11.64,6.64a5.3,5.3,0,0,0,.81,5.44,128.94,128.94,0,0,1,11.34,19.91c4,8.25,7.16,14.77,14.78,20.21.86.62,1.8,1.41,2.8,2.24,2.82,2.36,6.33,5.29,8.74,4.74a1.5,1.5,0,0,1,.68,2.93A5.52,5.52,0,0,1,278.63,201.16Z" style="fill:#407BFF"></path><path d="M278.63,201.16c-3.49,0-7.1-3-10.07-5.51-.95-.8-1.84-1.55-2.61-2.1-8.25-5.89-11.72-13.05-15.73-21.34a127.08,127.08,0,0,0-11.1-19.48,8.18,8.18,0,0,1-1.11-8.38c1.84-4.23,7.33-7.53,14-8.42a1.5,1.5,0,0,1,.39,3c-5.55.73-10.23,3.4-11.64,6.64a5.3,5.3,0,0,0,.81,5.44,128.94,128.94,0,0,1,11.34,19.91c4,8.25,7.16,14.77,14.78,20.21.86.62,1.8,1.41,2.8,2.24,2.82,2.36,6.33,5.29,8.74,4.74a1.5,1.5,0,0,1,.68,2.93A5.52,5.52,0,0,1,278.63,201.16Z" style="fill:#fff;opacity:0.6000000000000001"></path></g></svg>