<svg xmlns="http://www.w3.org/2000/svg" viewBox="0 0 500 500"><g id="freepik--background-complete--inject-33"><rect y="382.4" width="500" height="0.25" style="fill:#ebebeb"></rect><rect x="324.56" y="389.21" width="33.12" height="0.25" style="fill:#ebebeb"></rect><rect x="428.57" y="391.4" width="8.69" height="0.25" style="fill:#ebebeb"></rect><rect x="358.68" y="398.49" width="19.19" height="0.25" style="fill:#ebebeb"></rect><rect x="206.81" y="395.11" width="43.19" height="0.25" style="fill:#ebebeb"></rect><rect x="191.57" y="395.11" width="6.33" height="0.25" style="fill:#ebebeb"></rect><rect x="77.31" y="390.89" width="93.68" height="0.25" style="fill:#ebebeb"></rect><path d="M237,337.8H43.91a5.71,5.71,0,0,1-5.7-5.71V60.66A5.71,5.71,0,0,1,43.91,55H237a5.71,5.71,0,0,1,5.71,5.71V332.09A5.71,5.71,0,0,1,237,337.8ZM43.91,55.2a5.46,5.46,0,0,0-5.45,5.46V332.09a5.46,5.46,0,0,0,5.45,5.46H237a5.47,5.47,0,0,0,5.46-5.46V60.66A5.47,5.47,0,0,0,237,55.2Z" style="fill:#ebebeb"></path><path d="M453.31,337.8H260.21a5.72,5.72,0,0,1-5.71-5.71V60.66A5.72,5.72,0,0,1,260.21,55h193.1A5.71,5.71,0,0,1,459,60.66V332.09A5.71,5.71,0,0,1,453.31,337.8ZM260.21,55.2a5.47,5.47,0,0,0-5.46,5.46V332.09a5.47,5.47,0,0,0,5.46,5.46h193.1a5.47,5.47,0,0,0,5.46-5.46V60.66a5.47,5.47,0,0,0-5.46-5.46Z" style="fill:#ebebeb"></path><rect x="249.96" y="86.47" width="149.01" height="187.91" style="fill:#e6e6e6"></rect><rect x="253.43" y="86.47" width="152.97" height="187.91" style="fill:#f0f0f0"></rect><rect x="302.23" y="172.16" width="55.36" height="132.17" transform="translate(568.15 -91.67) rotate(90)" style="fill:#f5f5f5"></rect><rect x="275.12" y="90.12" width="109.58" height="125.26" transform="translate(482.66 -177.16) rotate(90)" style="fill:#fafafa"></rect><rect x="337.1" y="152.09" width="109.58" height="1.31" transform="translate(544.63 -239.14) rotate(90)" style="fill:#e6e6e6"></rect><polygon points="287.28 207.54 331.05 97.96 358.35 97.96 314.58 207.54 287.28 207.54" style="fill:#fff"></polygon><polygon points="320.45 207.54 364.22 97.96 374.86 97.96 331.09 207.54 320.45 207.54" style="fill:#fff"></polygon><rect x="367.9" y="237.82" width="53.71" height="2.49" transform="translate(633.81 -155.69) rotate(90)" style="fill:#e6e6e6"></rect><rect x="256.73" y="205.58" width="146.37" height="9.96" style="fill:#f0f0f0"></rect><path d="M210.73,80.21h236.5a2.68,2.68,0,0,0,2.67-2.67h0a2.68,2.68,0,0,0-2.67-2.67H210.73a2.68,2.68,0,0,0-2.67,2.67h0A2.68,2.68,0,0,0,210.73,80.21Z" style="fill:#ebebeb"></path><rect x="237.06" y="67.76" width="19.67" height="283.91" transform="translate(493.79 419.43) rotate(180)" style="fill:#fafafa"></rect><rect x="243.24" y="67.76" width="5.01" height="283.91" transform="translate(491.49 419.43) rotate(180)" style="fill:#f0f0f0"></rect><rect x="224.75" y="67.76" width="19.67" height="283.91" transform="translate(469.17 419.43) rotate(180)" style="fill:#fafafa"></rect><rect x="230.92" y="67.76" width="5.01" height="283.91" transform="translate(466.86 419.43) rotate(180)" style="fill:#f0f0f0"></rect><rect x="212.62" y="67.76" width="19.67" height="283.91" transform="translate(444.9 419.43) rotate(180)" style="fill:#fafafa"></rect><rect x="221.3" y="67.76" width="2.51" height="283.91" transform="translate(445.1 419.43) rotate(180)" style="fill:#f0f0f0"></rect><rect x="423.41" y="67.76" width="19.67" height="283.91" transform="translate(866.49 419.43) rotate(180)" style="fill:#fafafa"></rect><rect x="429.59" y="67.76" width="5.01" height="283.91" transform="translate(864.19 419.43) rotate(180)" style="fill:#f0f0f0"></rect><rect x="411.1" y="67.76" width="19.67" height="283.91" transform="translate(841.87 419.43) rotate(180)" style="fill:#fafafa"></rect><rect x="417.28" y="67.76" width="5.01" height="283.91" transform="translate(839.56 419.43) rotate(180)" style="fill:#f0f0f0"></rect><rect x="398.97" y="67.76" width="19.67" height="283.91" transform="translate(817.6 419.43) rotate(180)" style="fill:#fafafa"></rect><rect x="407.65" y="67.76" width="2.51" height="283.91" transform="translate(817.8 419.43) rotate(180)" style="fill:#f0f0f0"></rect><rect x="61.62" y="255.49" width="133.01" height="93.61" transform="translate(256.25 604.6) rotate(180)" style="fill:#f5f5f5"></rect><rect x="87.78" y="242.25" width="80.7" height="120.1" transform="translate(430.42 174.17) rotate(90)" style="fill:#ebebeb"></rect><rect x="50.64" y="279.39" width="80.7" height="45.82" transform="translate(393.28 211.31) rotate(90)" style="fill:#e6e6e6"></rect><rect x="59.17" y="287.93" width="80.7" height="28.74" transform="translate(401.82 202.77) rotate(90)" style="fill:#e0e0e0"></rect><rect x="161.42" y="301.28" width="36.24" height="2.03" transform="translate(481.84 122.76) rotate(90)" style="fill:#e0e0e0"></rect><rect x="125.5" y="204.53" width="5.26" height="120.1" transform="translate(392.7 136.45) rotate(90)" style="fill:#e0e0e0"></rect><rect x="29.11" y="255.49" width="32.51" height="93.61" style="fill:#e6e6e6"></rect><polygon points="64.77 382.4 61.62 382.4 61.62 349.1 67.06 349.1 64.77 382.4" style="fill:#f5f5f5"></polygon><polygon points="191.48 382.4 194.63 382.4 194.63 349.1 189.19 349.1 191.48 382.4" style="fill:#f5f5f5"></polygon><polygon points="32.26 382.4 29.11 382.4 29.11 349.1 34.55 349.1 32.26 382.4" style="fill:#e6e6e6"></polygon><polygon points="158.97 382.4 162.12 382.4 162.12 349.1 156.69 349.1 158.97 382.4" style="fill:#e6e6e6"></polygon><path d="M105.81,180.06c8.79-11.49,29.71-15.76,36.94-23,9.47-9.5,9.42-23.75,1.36-28.89-7-4.47-30.21,25.75-32.82,29.12-9,11.61-11.6,20.23-13.29,28.57.19-7.09.38-13.61.53-18.63.49-16.4,1.1-21.67,1.38-23.29,1-.8,2.12-1.72,2.78-2.21,5.62-4.19,18.07-9.18,24.3-15.26,9.09-8.89,7.62-19.53,1.24-23.49-6.66-4.14-18.45,5.65-24.71,15.35s-3.58,19-5.33,27c-.37,1.58-.75,7.58-1.1,15.91A32.93,32.93,0,0,0,84.4,140.71c-8.62-6.88-16.06-15.25-23.16-14.17S58,138.7,63.58,146.48c5,6.93,29.69,13.84,33.32,19.41-.43,11.28-.81,25.57-1.08,38.88-1.95-6.87-.61-7.45-8.58-18-4.74-6.26-24.18-14-26.49-9.68s1.2,12.43,8.54,18.12c5.92,4.59,19,4.58,22.09,7.43.71.66,3.05,3.21,4.39,4.68-.32,16.24-.46,30.58-.3,35.47l1.27.05c-.06-1.26.09-9.52.34-20.46,3.19-5.82,24.66-9.22,31.29-15.27,6.94-6.33,11.92-13.72,8.95-18.67-2.48-4.13-22,1.48-30,8.32-5.29,4.55-8.52,9.41-10,15.94.18-7.45.39-15.45.59-23C99.5,187.84,103.17,183.5,105.81,180.06Z" style="fill:#e6e6e6"></path><path d="M107.68,255.49H85.39c-1.22,0-2.27-1.58-2.51-3.79L81.3,237.28h30.47l-1.58,14.42C109.94,253.91,108.9,255.49,107.68,255.49Z" style="fill:#f0f0f0"></path><path d="M112.41,242.87H80.66c-.76,0-1.4-1.05-1.48-2.45l-.65-10.66c-.1-1.64.59-3.07,1.48-3.07h33.05c.89,0,1.58,1.43,1.48,3.07l-.65,10.66C113.81,241.82,113.17,242.87,112.41,242.87Z" style="fill:#f0f0f0"></path></g><g id="freepik--Shadow--inject-33"><ellipse id="freepik--path--inject-33" cx="250" cy="416.24" rx="193.89" ry="11.32" style="fill:#f5f5f5"></ellipse></g><g id="freepik--character-1--inject-33"><polygon points="185.28 408.83 193.25 408.83 193.16 390.37 185.19 390.37 185.28 408.83" style="fill:#ff8b7b"></polygon><polygon points="114.32 403.36 121.95 405.66 130.29 388.89 122.65 386.59 114.32 403.36" style="fill:#ff8b7b"></polygon><path d="M122.72,404.93l-8.58-2.59a.64.64,0,0,0-.78.33l-3.24,6.43a1.24,1.24,0,0,0,.77,1.71c3,.85,4.51,1.12,8.28,2.26,2.32.7,7.14,2.42,10.35,3.39s4.43-2.12,3.19-2.81c-5.56-3.08-7.42-5.58-8.87-7.87A2.1,2.1,0,0,0,122.72,404.93Z" style="fill:#263238"></path><path d="M193.15,407.91h-8.71a.65.65,0,0,0-.65.54l-1.23,7.09a1.22,1.22,0,0,0,1.21,1.42c3.14-.06,7.67-.24,11.62-.24,4.61,0,4.51.25,9.92.25,3.28,0,4-3.31,2.64-3.61-6.3-1.36-7.3-1.51-12.85-4.83A3.84,3.84,0,0,0,193.15,407.91Z" style="fill:#263238"></path><path d="M188.7,161.53l9.87-5.61s18,25.56,21.44,27.81c4.71,3.06,10.52,10.62,18.37,16.23-.13,1.35-1.51,4.64-2.49,5.36-9.62-3.71-22.1-10.71-25.27-14.8C203.39,181.21,188.7,161.53,188.7,161.53Z" style="fill:#ff8b7b"></path><path d="M184.34,157.45c-1.41,7.43,10.9,19.56,10.9,19.56l14.22-10.65A103.51,103.51,0,0,0,197.17,149C190.15,141.41,185.9,149.31,184.34,157.45Z" style="fill:#407BFF"></path><path d="M184.34,157.45c-1.41,7.43,10.9,19.56,10.9,19.56l14.22-10.65A103.51,103.51,0,0,0,197.17,149C190.15,141.41,185.9,149.31,184.34,157.45Z" style="opacity:0.5"></path><path d="M235.35,198.46l9,2-4.57,9.18s-2.18-.79-5.57-5.55Z" style="fill:#ff8b7b"></path><path d="M249.56,209l-1.33,1.78a3.21,3.21,0,0,1-3.92,1l-4.57-2.1,4.57-9.18,4.78,4.15A3.21,3.21,0,0,1,249.56,209Z" style="fill:#ff8b7b"></path><polygon points="193.16 390.37 193.21 399.89 185.23 399.89 185.18 390.37 193.16 390.37" style="opacity:0.2"></polygon><polygon points="122.65 386.59 130.29 388.9 125.98 397.54 118.35 395.23 122.65 386.59" style="opacity:0.2"></polygon><path d="M192.88,146.11s10.64,20.32,3.84,65.17H154.07c-.61-6.55,1.91-34.73-5.88-65.58a110.26,110.26,0,0,1,14.19-1.8,156.55,156.55,0,0,1,18.13,0A83,83,0,0,1,192.88,146.11Z" style="fill:#407BFF"></path><path d="M192.88,146.11s10.64,20.32,3.84,65.17H154.07c-.61-6.55,1.91-34.73-5.88-65.58a110.26,110.26,0,0,1,14.19-1.8,156.55,156.55,0,0,1,18.13,0A83,83,0,0,1,192.88,146.11Z" style="opacity:0.4"></path><path d="M157.82,153.32c1,5.08-.07,17.22-4.24,31.26a205.65,205.65,0,0,0-4.65-35.81v-.06C151.72,148.42,156.91,148.56,157.82,153.32Z" style="opacity:0.2"></path><path d="M163.94,127c1.42,5.83,2.34,13.06-1.56,17,0,0,5.67,6.68,13.61,7,7.11.28,4.52-7,4.52-7-6.58-1.55-6.62-9.6-5.71-14.13Z" style="fill:#ff8b7b"></path><path d="M174.81,129.78c-.55,2.65-.76,6.51.5,9.57a10.68,10.68,0,0,1-2.95-.89c-3.75-1.73-5.69-4.45-7.76-8.49-.19-1-.41-2-.66-3Z" style="opacity:0.2"></path><path d="M162.3,116.41c.3,8,.08,12.74,3.92,17.09,5.77,6.55,15.46,3.47,17.5-4.4,1.83-7.09,1-19-6.51-22.69S162,108.38,162.3,116.41Z" style="fill:#ff8b7b"></path><path d="M162.82,125.56c2.67,0,5.5-5.21,4.17-7.72a3.64,3.64,0,0,0,.34-5.4c3.38,1.56,6.71,1.17,7.79-.55,3.48,1.17,8,1.83,8.81-1.33,4.95.77,5.08-5.54,2.86-8.39-2.65-3.42-10-2.42-13.2-.75s-8.1-3.48-11.63-.67c-3.17,2.52-2.14,5.08-2.14,5.08-5.36-.5-8.55,4.56-4.61,7.84C160.74,118.26,160.54,123.18,162.82,125.56Z" style="fill:#263238"></path><path d="M160.15,107.11a1,1,0,0,1-.61-.21,6.5,6.5,0,0,1-2.14-6,1,1,0,0,1,2,.31,4.48,4.48,0,0,0,1.4,4.14,1,1,0,0,1,.17,1.41A1,1,0,0,1,160.15,107.11Z" style="fill:#263238"></path><path d="M176.48,128.85a5.65,5.65,0,0,1-3.63-2.41.19.19,0,0,1,.07-.26.18.18,0,0,1,.25.07,5.37,5.37,0,0,0,4.07,2.33.19.19,0,0,1,.18.2.18.18,0,0,1-.2.18A5.73,5.73,0,0,1,176.48,128.85Z" style="fill:#263238"></path><path d="M159,126.06a7.48,7.48,0,0,0,4.56,3.17c2.44.53,3.41-1.74,2.51-4-.8-2-3-4.76-5.4-4.27S157.75,124.07,159,126.06Z" style="fill:#ff8b7b"></path><path d="M168.69,211.28s1.08,17.1,2.47,30.69c1.59,15.4,3.57,35.39,4.82,50.63,0,.08,0,.14,0,.21.24,2.89.45,5.6.63,8.08,1.79,24.85,6,97.16,6,97.16h13.5s5.09-73.79,4.79-99.08c-.29-24.32-4.16-87.69-4.16-87.69Z" style="fill:#263238"></path><path d="M181.47,392.76c-.06,0,.23,5.56.23,5.56h15.57l.4-6.11Z" style="fill:#407BFF"></path><path d="M171.16,242c1.59,15.4,3.57,35.39,4.82,50.63,0,.08,0,.14,0,.21,3-14.44,3.89-32.41,2.74-62Z" style="opacity:0.2"></path><path d="M181.59,211.28s-5.77,63.09-11.25,85.59c-6,24.63-40.35,100-40.35,100l-14-4.23s26.75-70.6,30.42-95.16c4-26.65,7.64-86.16,7.64-86.16Z" style="fill:#263238"></path><path d="M117.25,387.8c-.06,0-2,4.86-2,4.86l15.36,4.64,2.81-5.24Z" style="fill:#407BFF"></path><path d="M174.62,119.38c0,.65.31,1.2.72,1.23s.77-.49.78-1.14-.31-1.2-.72-1.22S174.63,118.73,174.62,119.38Z" style="fill:#263238"></path><ellipse cx="182.92" cy="119.87" rx="0.75" ry="1.18" transform="translate(-0.5 0.77) rotate(-0.24)" style="fill:#263238"></ellipse><path d="M179.59,120a24.63,24.63,0,0,0,2.9,5.76,3.54,3.54,0,0,1-3,.39Z" style="fill:#ff5652"></path><path d="M172.53,117.84a.36.36,0,0,0,.29-.16,2.84,2.84,0,0,1,2.32-1.31.35.35,0,0,0,.38-.36.4.4,0,0,0-.37-.4,3.51,3.51,0,0,0-3,1.62.39.39,0,0,0,.1.53A.34.34,0,0,0,172.53,117.84Z" style="fill:#263238"></path><path d="M185,117.81a.42.42,0,0,0,.16,0,.4.4,0,0,0,.16-.52,3.91,3.91,0,0,0-2.76-2.15.36.36,0,0,0-.4.34.38.38,0,0,0,.33.42h0a3.12,3.12,0,0,1,2.17,1.73A.39.39,0,0,0,185,117.81Z" style="fill:#263238"></path><path d="M143.46,156.59l10.08,6.09s-8.63,20.17-11.65,27.44c-.4,7.55-.35,21.69,1,28.23-.71,1.11-3.39,3.32-4.6,3.48-5.43-12.25-8.41-26.65-7.89-31.64C131.59,178.83,143.46,156.59,143.46,156.59Z" style="fill:#ff8b7b"></path><path d="M148.19,145.7c-7.49,1.1-13.29,22-13.29,22L151.74,179s4.22-9.54,7.22-18.77C162.11,150.55,156.23,144.53,148.19,145.7Z" style="fill:#407BFF"></path><path d="M148.19,145.7c-7.49,1.1-13.29,22-13.29,22L151.74,179s4.22-9.54,7.22-18.77C162.11,150.55,156.23,144.53,148.19,145.7Z" style="opacity:0.4"></path><path d="M124.9,407.05a2.37,2.37,0,0,0,1.57.05,1.1,1.1,0,0,0,.62-.86.66.66,0,0,0-.18-.61c-.73-.69-3.58.09-3.91.18a.19.19,0,0,0,0,.35A9.93,9.93,0,0,0,124.9,407.05Zm1.54-1.26a.57.57,0,0,1,.22.11.25.25,0,0,1,.06.25.78.78,0,0,1-.41.6c-.51.23-1.52,0-2.75-.68A7.15,7.15,0,0,1,126.44,405.79Z" style="fill:#407BFF"></path><path d="M123,406.18h.1c.9-.2,2.85-1.43,2.9-2.35a.64.64,0,0,0-.45-.65,1,1,0,0,0-.83,0c-1.07.47-1.82,2.65-1.85,2.74a.21.21,0,0,0,0,.19Zm2.33-2.67.08,0c.23.1.22.22.22.26,0,.54-1.33,1.53-2.26,1.9.25-.63.82-1.86,1.51-2.16A.64.64,0,0,1,125.34,403.51Z" style="fill:#407BFF"></path><path d="M196.54,409.3a2.9,2.9,0,0,0,1.91-.49,1,1,0,0,0,.31-.92.62.62,0,0,0-.34-.5c-1-.54-4.12,1.08-4.47,1.27a.18.18,0,0,0-.09.2.2.2,0,0,0,.16.16A14.15,14.15,0,0,0,196.54,409.3Zm1.36-1.65a.74.74,0,0,1,.36.07.23.23,0,0,1,.12.2.65.65,0,0,1-.19.61c-.47.43-1.78.51-3.56.22A10,10,0,0,1,197.9,407.65Z" style="fill:#407BFF"></path><path d="M194.05,409l.08,0c.94-.43,2.77-2.15,2.58-3.06-.05-.21-.21-.47-.73-.52a1.3,1.3,0,0,0-1,.32c-1,.83-1.09,3-1.1,3.07a.2.2,0,0,0,.09.17A.15.15,0,0,0,194.05,409Zm1.79-3.23H196c.34,0,.37.17.38.21.11.55-1.12,1.9-2.08,2.49a4.29,4.29,0,0,1,.94-2.46A1,1,0,0,1,195.84,405.79Z" style="fill:#407BFF"></path><path d="M142.17,216.07l4.34,7.49-8,2.05s-3.57-5.91-1.72-8.87Z" style="fill:#ff8b7b"></path><polygon points="147.28 229.29 140.57 231.74 138.53 225.61 146.51 223.56 147.28 229.29" style="fill:#ff8b7b"></polygon></g><g id="freepik--character-2--inject-33"><path d="M326.51,140.56c-.87,5.29-1.61,14.94,2.16,18.33a20.33,20.33,0,0,1-12.46,8.9c-8.28-4.2-3.86-8.41-3.86-8.41,5.82-1.57,5.54-5.91,4.4-10Z" style="fill:#ffb573"></path><path d="M331.43,159.62c-1.3-2.57,2.56-4.62.33-4.93s-9.81-3-16.81-2.11S302.57,155,307.59,163,334.3,165.28,331.43,159.62Z" style="fill:#407BFF"></path><path d="M344.5,167.6c1.61,1.79,3,3.54,4.48,5.36s2.84,3.67,4.19,5.57a73,73,0,0,1,7.29,12.37,26.71,26.71,0,0,1,1.35,3.76,13.52,13.52,0,0,1,.52,4.81,16.84,16.84,0,0,1-1.07,4.2,30.5,30.5,0,0,1-1.58,3.46,55.1,55.1,0,0,1-8.39,11.45L347.66,216A116.86,116.86,0,0,0,353,204.12a29.39,29.39,0,0,0,.87-2.84,11.45,11.45,0,0,0,.34-2.4,7,7,0,0,0-.41-1.85,22.93,22.93,0,0,0-1.09-2.55,77.64,77.64,0,0,0-6.85-10.64c-2.59-3.48-5.38-7-8.14-10.27Z" style="fill:#ffb573"></path><path d="M339.78,159.8c6.58.71,13.77,13.09,13.77,13.09l-10.89,12.78s-8.6-7.12-10.36-11.69C330,168.06,335.51,159.33,339.78,159.8Z" style="fill:#263238"></path><path d="M349.17,215.08,340,217.9l7.58,4.86s5-2.7,5-6.38Z" style="fill:#ffb573"></path><polygon points="335.78 224.01 342.35 227.74 347.61 222.76 340.03 217.9 335.78 224.01" style="fill:#ffb573"></polygon><path d="M296.62,166.27c-.2,5.59.77,18.66,6.66,49.11l35.94-1.07c-1-13.93-1.29-22.78,4-49.77a4,4,0,0,0-3.41-4.74,100.81,100.81,0,0,0-11.11-.91,115.14,115.14,0,0,0-16.32.49c-4.16.5-8.64,1.37-11.59,2A5.19,5.19,0,0,0,296.62,166.27Z" style="fill:#263238"></path><path d="M303.46,171.39a130.33,130.33,0,0,1-9,15.41,86.18,86.18,0,0,1-5.47,7.26,41.1,41.1,0,0,1-6.95,6.69c-.36.25-.71.5-1.1.74s-.75.48-1.24.73a18.31,18.31,0,0,1-2.59,1.07,38.68,38.68,0,0,1-4.67,1.15,87.6,87.6,0,0,1-8.93,1.14,156.77,156.77,0,0,1-17.6.37l-.21-4.48c2.81-.42,5.67-.84,8.49-1.29s5.63-.91,8.41-1.44,5.52-1.11,8.14-1.8a31.43,31.43,0,0,0,3.66-1.2,8.93,8.93,0,0,0,1.38-.67,6.56,6.56,0,0,0,.6-.41,7.33,7.33,0,0,0,.66-.51,36.71,36.71,0,0,0,5.22-5.59c1.64-2.14,3.23-4.39,4.74-6.73s2.94-4.74,4.36-7.17,2.78-4.93,4.06-7.33Z" style="fill:#ffb573"></path><path d="M300.12,161.54c-8.41,3-11.41,14.9-11.41,14.9l12.44,12.88S308,179.26,309,170.58C309.55,165.51,305.3,159.69,300.12,161.54Z" style="fill:#263238"></path><path d="M248,201.41h-9.59l5.12,7.11s4.95-.87,5.91-4.33Z" style="fill:#ffb573"></path><path d="M234.15,205.57l2.77,3.65a1.12,1.12,0,0,0,1.13.42l5.48-1.11-5.12-7.11-4,2.49A1.14,1.14,0,0,0,234.15,205.57Z" style="fill:#ffb573"></path><path d="M306.6,131c-.06.71-.49,1.26-1,1.22s-.8-.65-.74-1.36.49-1.26.95-1.22S306.66,130.26,306.6,131Z" style="fill:#263238"></path><path d="M306.06,129.67l-1.67-.63S305.16,130.44,306.06,129.67Z" style="fill:#263238"></path><path d="M305.86,132.5a19.11,19.11,0,0,1-2.91,4.34,3.08,3.08,0,0,0,2.5.68Z" style="fill:#ed893e"></path><path d="M309.36,129.32a.43.43,0,0,1-.42-.26c-.73-1.8-3.16-2.38-3.18-2.39a.42.42,0,1,1,.19-.81c.12,0,2.88.69,3.77,2.88a.42.42,0,0,1-.23.55A.31.31,0,0,1,309.36,129.32Z" style="fill:#263238"></path><path d="M330.9,130.34c-1.26,8.7-1.6,12.41-6.39,16.53-7.19,6.21-17.6,2.76-19-6.13-1.23-8,1-20.89,9.87-23.67A12,12,0,0,1,330.9,130.34Z" style="fill:#ffb573"></path><path d="M310.67,125.84c-2.11,1.49-2.77,8.73-2.11,13.58.9,6.54-5.19,6.54-8.2,4.41-1,10.17,14.91,11,23.86,11.25S344.13,154,341.16,142s.57-22.28-8.65-24c-.84-5.56-22.05-8.72-26,3C307.34,125.33,310.67,125.84,310.67,125.84Z" style="fill:#263238"></path><path d="M311.73,135.24a6.15,6.15,0,0,1-3.69,3.47c-1.6.52-1.54-2.1-1.12-4.6.38-2.25,1.68-5.23,3.29-4.62S312.45,133.05,311.73,135.24Z" style="fill:#ffb573"></path><path d="M376.27,406.52a3.35,3.35,0,0,0,2.08-.76,1.16,1.16,0,0,0,.27-1.05.67.67,0,0,0-.41-.52c-1.14-.48-4.47,1.67-4.84,1.91a.21.21,0,0,0-.09.23.2.2,0,0,0,.18.16A15.28,15.28,0,0,0,376.27,406.52Zm1.38-2a.72.72,0,0,1,.4,0,.24.24,0,0,1,.16.21.76.76,0,0,1-.17.69c-.49.53-1.93.77-3.91.64A11.37,11.37,0,0,1,377.65,404.54Z" style="fill:#407BFF"></path><path d="M373.5,406.49a.16.16,0,0,0,.09,0c1-.58,2.88-2.69,2.62-3.67-.06-.23-.26-.51-.84-.51a1.5,1.5,0,0,0-1.12.48c-1,1-1,3.42-1,3.52a.23.23,0,0,0,.11.18A.27.27,0,0,0,373.5,406.49Zm1.74-3.79h.13c.38,0,.42.15.43.2.16.59-1.1,2.22-2.1,3a4.81,4.81,0,0,1,.85-2.83A1.07,1.07,0,0,1,375.24,402.7Z" style="fill:#407BFF"></path><polygon points="374.11 407.93 365.26 407.93 360.69 387.43 369.55 387.43 374.11 407.93" style="fill:#ffb573"></polygon><path d="M374.08,405.94l-9.85-1.37a.55.55,0,0,0-.66.52l-.65,7.85a1.82,1.82,0,0,0,1.51,1.8c3.43.42,5.07.44,9.4,1.05A82,82,0,0,0,384.66,417c3.64,0,3.18-3.67,1.57-4C379,411.47,378,409,375.58,406.7A2.8,2.8,0,0,0,374.08,405.94Z" style="fill:#263238"></path><g style="opacity:0.2"><polygon points="360.69 387.43 363.05 398 371.9 398 369.55 387.43 360.69 387.43"></polygon></g><path d="M339.22,214.31c9.71,13.71,15.33,64.05,18.82,91,3.63,28,14.28,90.67,14.28,90.67h-12s-16.52-63.49-22.8-90.82c-6.92-30.16-21.34-90.82-21.34-90.82Z" style="fill:#407BFF"></path><path d="M329.21,237.61c5.85,17.68,6.1,40,5.43,55-3.6-15.53-8.08-34.54-11.72-49.94Z" style="opacity:0.2"></path><path d="M316.39,407.52a3.4,3.4,0,0,1-2.15-.54,1.19,1.19,0,0,1-.37-1,.65.65,0,0,1,.35-.55c1.09-.6,4.62,1.21,5,1.41a.22.22,0,0,1,.12.22.2.2,0,0,1-.17.17A15,15,0,0,1,316.39,407.52Zm-1.58-1.83a.75.75,0,0,0-.39.08.25.25,0,0,0-.14.22.75.75,0,0,0,.25.67c.53.49,2,.57,4,.25A11.21,11.21,0,0,0,314.81,405.69Z" style="fill:#407BFF"></path><path d="M319.14,407.21l-.09,0c-1.05-.48-3.14-2.39-3-3.39,0-.24.21-.53.79-.59a1.54,1.54,0,0,1,1.16.36c1.11.93,1.32,3.31,1.33,3.41a.22.22,0,0,1-.09.19A.19.19,0,0,1,319.14,407.21ZM317,403.62h-.13c-.38,0-.41.19-.41.24-.1.6,1.32,2.1,2.39,2.75a4.86,4.86,0,0,0-1.13-2.73A1.11,1.11,0,0,0,317,403.62Z" style="fill:#407BFF"></path><polygon points="327.76 407.93 318.9 407.93 317.72 387.43 326.58 387.43 327.76 407.93" style="fill:#ffb573"></polygon><path d="M318.24,406.91h9.95a.7.7,0,0,1,.71.6l1.13,7.87a1.43,1.43,0,0,1-1.42,1.58c-3.47-.06-5.14-.27-9.51-.27-2.7,0-8.85.28-12.57.28s-3.91-3.67-2.36-4c6.94-1.49,10.25-3.55,12.59-5.51A2.33,2.33,0,0,1,318.24,406.91Z" style="fill:#263238"></path><g style="opacity:0.2"><polygon points="317.73 387.43 318.33 398 327.19 398 326.58 387.43 317.73 387.43"></polygon></g><path d="M303.28,215.38s3.67,66.64,6.2,93.53c2.64,28,7,87,7,87h12s2.62-60.14.67-87.67c-2.12-30,5.74-71.66.51-93.68C324.73,214.6,303.28,215.38,303.28,215.38Z" style="fill:#407BFF"></path><polygon points="329.46 396.38 315.41 396.38 314.71 390.86 330.03 391.95 329.46 396.38" style="fill:#263238"></polygon><polygon points="373.15 396.38 359.11 396.38 357.7 390.51 373.34 391.96 373.15 396.38" style="fill:#263238"></polygon><path d="M339.7,212.19l1,3.19c.14.24-.15.51-.57.52l-37,1.1c-.33,0-.6-.14-.63-.35l-.42-3.2c0-.23.25-.42.61-.43l36.39-1.09A.69.69,0,0,1,339.7,212.19Z" style="fill:#fff"></path><path d="M334.93,216.4l1,0c.19,0,.33-.11.32-.23l-.58-4.17c0-.12-.19-.21-.39-.21l-1,0c-.2,0-.34.11-.33.23l.59,4.17C334.56,216.31,334.74,216.41,334.93,216.4Z" style="fill:#407BFF"></path><path d="M305.9,217.27l1,0c.2,0,.34-.11.33-.24l-.59-4.16c0-.12-.19-.22-.38-.21l-1,0c-.19,0-.33.11-.32.23l.58,4.16C305.53,217.18,305.7,217.27,305.9,217.27Z" style="fill:#407BFF"></path><path d="M320.41,216.83l1,0c.19,0,.34-.12.32-.24l-.58-4.16c0-.13-.19-.22-.38-.21l-1,0c-.19,0-.34.11-.32.24l.58,4.16C320.05,216.74,320.22,216.84,320.41,216.83Z" style="fill:#407BFF"></path></g><g id="freepik--Handshake--inject-33"><circle cx="250" cy="88.14" r="49.41" style="fill:#407BFF"></circle><polygon points="221.37 120 250 166.03 278.63 120 221.37 120" style="fill:#407BFF"></polygon><circle cx="250" cy="88.14" r="44.33" style="fill:#fff"></circle><path d="M256.16,81.18c-1.22-1.28-2.07-2.79-3.17-4.16a9.58,9.58,0,0,0-4.34-3.09,25.5,25.5,0,0,0-9.25-2.45l-1.94-.12c-5.32-1.11-13.7-10.4-17.91-15.42a44.24,44.24,0,0,0-13.09,23.85c5.35,4.11,12,9.58,15.23,13.79a37.28,37.28,0,0,0,3,4.81l.15-.12L235.5,88c5.35,2.42,12.6-1.4,21.16,2.64,3.76,1.78,8.72,2.19,9.67-2C266.72,87,259.81,85,256.16,81.18Z" style="fill:#ff8b7b"></path><path d="M283,58.5a43,43,0,0,1-7.13,7.56,23.94,23.94,0,0,1-12.5,5.27c-.64.07-1.26.1-1.83.11h0l-1.05.07a22.76,22.76,0,0,0-2.5.3l-.18,0a38,38,0,0,0-8.59,2.34c.38.17.69.34,1,.5,3.21,1.7,3.26,3.64,6,6.51,3.65,3.85,10.56,5.81,10.17,7.49-.95,4.14-5.91,3.73-9.67,2-8.56-4-15.81-.22-21.16-2.64L224.85,98.27l-.15.12-1.5,1.27a4.22,4.22,0,1,0,5.43,6.47l-.29.25a4.22,4.22,0,0,0-.15,6.35h0a4.22,4.22,0,0,0,5.58.13l1.48-1.24a4.23,4.23,0,1,0,5.43,6.48l2.4-2a4.23,4.23,0,1,0,5.43,6.48l1.65-1.38-3.63-3a3.18,3.18,0,0,1-.12-4.77l1-.9.58-.54a3.75,3.75,0,0,1,.51-.38,3.2,3.2,0,0,1,3.69.28l.76.64,1.42,1.2a3.18,3.18,0,0,1-.11-4.77l1.56-1.44a3.19,3.19,0,0,1,4.2-.1l1.27,1.07a3.16,3.16,0,0,1-.11-4.76l1.56-1.44a3.16,3.16,0,0,1,4.19-.1l-.51-.43a3.18,3.18,0,0,1-.11-4.76l1.56-1.44a3.18,3.18,0,0,1,4.2-.1l3.56,3a37.37,37.37,0,0,0,3.27-5.3h0a87.44,87.44,0,0,1,13.53-17.88A44.15,44.15,0,0,0,283,58.5Z" style="fill:#ffb573"></path><path d="M277.12,99.66l-1.51-1.27-3.56-3a3.18,3.18,0,0,0-4.2.1l-1.56,1.44a3.18,3.18,0,0,0,.11,4.76l.51.43a3.16,3.16,0,0,0-4.19.1l-1.56,1.44a3.16,3.16,0,0,0,.11,4.76L260,107.36a3.19,3.19,0,0,0-4.2.1l-1.56,1.44a3.18,3.18,0,0,0,.11,4.77l-1.42-1.2-.76-.64a3.2,3.2,0,0,0-3.69-.28,3.75,3.75,0,0,0-.51.38l-.58.54-1,.9a3.18,3.18,0,0,0,.12,4.77l3.63,3,1.64,1.38a4.23,4.23,0,1,0,5.44-6.48l-.5-.42,2.89,2.43a4.23,4.23,0,1,0,5.44-6.48l1.48,1.24a4.23,4.23,0,1,0,5.43-6.48l-.3-.25a4.23,4.23,0,1,0,5.44-6.47Z" style="fill:#ff8b7b"></path><path d="M230.4,63.81A.69.69,0,0,1,230,64a4.39,4.39,0,0,0,.07-.72,3.56,3.56,0,0,0-.05-.47.58.58,0,0,1,.43.1c.33.3.74.61.68-.53,0-.69-.45-.62-.67-.21a.8.8,0,0,1-.49.3,3.63,3.63,0,0,0-.69-1.44.74.74,0,0,1,.49-.27c.44,0,.95,0,.21-.83-.45-.52-.74-.22-.65.24a.93.93,0,0,1-.26.61,3.35,3.35,0,0,0-.57-.49,2,2,0,0,1,.43-.44c.28-.13.44-.16,0-.4-.28-.14-.31,0-.27.22s-.13.33-.27.54a3.77,3.77,0,0,0-.7-.34.61.61,0,0,1,.28-.37c.42-.15.88-.38-.16-.84-.64-.27-.76.12-.49.51a.89.89,0,0,1,0,.6,3.76,3.76,0,0,0-.95-.14,4.76,4.76,0,0,0-.66.06.7.7,0,0,1,0-.53c.23-.38.46-.84-.65-.56-.67.17-.52.56-.07.7.16,0,.31.26.42.47a3.63,3.63,0,0,0-1.37.73c-.19-.17-.47-.46-.43-.69.06-.44.09-.95-.82-.26-.55.43-.26.73.21.67.25,0,.61.29.8.47a4,4,0,0,0-.53.69,2.21,2.21,0,0,1-.68-.41c-.19-.25-.25-.41-.39.08-.09.3,0,.3.26.22s.49.11.75.23a3,3,0,0,0-.28.63.62.62,0,0,1-.39-.22c-.22-.39-.51-.81-.8.3-.17.67.24.73.57.4a.77.77,0,0,1,.51-.14,3.59,3.59,0,0,0,0,1.68.45.45,0,0,1-.31,0c-.36-.25-.81-.5-.59.62.13.68.53.55.69.11a.67.67,0,0,1,.33-.31,3.52,3.52,0,0,0,.38.78,1.36,1.36,0,0,1-.46.14c-.24,0-.36,0-.15.27s.2.13.26,0a1.18,1.18,0,0,1,.41-.27,4.6,4.6,0,0,0,.46.53.51.51,0,0,1-.33.2c-.45,0-1,.11-.09.85.52.46.76.11.61-.33a.7.7,0,0,1,.09-.49,3.6,3.6,0,0,0,1,.56c-.07.22-.17.45-.33.52-.41.16-.87.4.19.83.64.26.75-.14.47-.51a1,1,0,0,1,0-.75,3.43,3.43,0,0,0,.8.12,1.43,1.43,0,0,1,0,.5c-.1.21-.19.31.2.24.23,0,.18-.14,0-.26a.93.93,0,0,1-.1-.47,4.2,4.2,0,0,0,.62-.06.83.83,0,0,1,.08.64c-.23.38-.44.85.66.54.66-.18.51-.57,0-.69-.19,0-.36-.33-.48-.57a3.68,3.68,0,0,0,1.46-.78.59.59,0,0,1,.2.41c0,.44,0,.95.83.2.52-.46.21-.74-.25-.65a.9.9,0,0,1-.53-.2,4,4,0,0,0,.46-.6,1.56,1.56,0,0,1,.46.35c.17.26.22.42.4-.06.1-.29,0-.3-.25-.23a1.15,1.15,0,0,1-.54-.19,3.48,3.48,0,0,0,.29-.69.56.56,0,0,1,.38.19c.25.37.57.77.78-.35C231.13,63.49,230.71,63.46,230.4,63.81Z" style="fill:#407BFF"></path><path d="M214.6,80.83a1,1,0,0,1-.67,0,4.92,4.92,0,0,0,.47-.88,4.44,4.44,0,0,0,.19-.62.79.79,0,0,1,.5.35c.25.55.6,1.17,1.13-.32.32-.9-.24-1-.74-.62a1.11,1.11,0,0,1-.78.13,4.93,4.93,0,0,0-.12-2.2,1,1,0,0,1,.77-.1c.53.29,1.18.55.7-.94-.29-.91-.82-.67-1,0-.05.23-.35.47-.64.64a5,5,0,0,0-.46-.93,2.44,2.44,0,0,1,.77-.33c.42,0,.65,0,.21-.51-.27-.33-.38-.18-.45.14,0,.12-.34.35-.64.54a4.84,4.84,0,0,0-.7-.8.86.86,0,0,1,.56-.32c.61,0,1.31,0,.23-1.16-.66-.68-1-.24-.88.39a1.2,1.2,0,0,1-.26.79,4.89,4.89,0,0,0-1.13-.67,4.44,4.44,0,0,0-.86-.25,1,1,0,0,1,.26-.69c.49-.37,1-.84-.53-1.06-.93-.13-.95.45-.46.85a1.2,1.2,0,0,1,.28.83,5,5,0,0,0-2.11.21c-.14-.31-.34-.82-.18-1.1.31-.53.61-1.17-.9-.75-.91.25-.71.79-.09,1,.33.09.62.68.77,1a5.55,5.55,0,0,0-1,.6,3,3,0,0,1-.65-.88c-.11-.41-.11-.65-.54-.1-.26.34-.1.41.23.42.15,0,.55.4.81.68a4.78,4.78,0,0,0-.68.67.87.87,0,0,1-.38-.49c-.07-.61-.22-1.3-1.17,0-.57.76-.08,1,.52.8a1.13,1.13,0,0,1,.72.09,4.56,4.56,0,0,0-.55,1,4.89,4.89,0,0,0-.31,1.18.66.66,0,0,1-.37-.23c-.33-.52-.76-1.07-1.07.48-.19.93.38,1,.81.5a.94.94,0,0,1,.58-.22,4.74,4.74,0,0,0,.07,1.19,2,2,0,0,1-.65,0c-.3-.15-.44-.26-.33.26.06.32.18.26.35.07a1.68,1.68,0,0,1,.67-.13,4.85,4.85,0,0,0,.3.91.78.78,0,0,1-.54.09c-.57-.2-1.25-.36-.56,1,.42.85.91.54.95-.11a1,1,0,0,1,.38-.58,4.71,4.71,0,0,0,1,1.26c-.19.25-.44.49-.68.49-.61,0-1.31.07-.2,1.17.67.67,1,.21.87-.41a1.47,1.47,0,0,1,.34-1,4.82,4.82,0,0,0,1,.56,2,2,0,0,1-.31.62c-.24.22-.4.31.12.41.32,0,.31-.08.2-.31a1.61,1.61,0,0,1,.12-.65,4.94,4.94,0,0,0,.83.25,1.17,1.17,0,0,1-.25.86c-.48.37-1,.86.55,1,.94.1.95-.47.44-.86a1.49,1.49,0,0,1-.31-1,4.94,4.94,0,0,0,2.26-.24.88.88,0,0,1,0,.63c-.28.54-.54,1.21.94.69.9-.32.66-.84,0-1a1.08,1.08,0,0,1-.57-.52,5.36,5.36,0,0,0,.89-.53,2.17,2.17,0,0,1,.41.68c.07.42.06.66.53.14.28-.32.13-.4-.2-.43-.12,0-.37-.27-.59-.52a5.24,5.24,0,0,0,.75-.74.89.89,0,0,1,.38.45c.11.6.31,1.28,1.17,0C215.69,80.81,215.18,80.55,214.6,80.83Z" style="fill:#407BFF"></path><path d="M232.6,78.16c.22.18.5.38.43-.36,0-.45-.31-.4-.44-.12a.63.63,0,0,1-.33.21,2.39,2.39,0,0,0-.22-.58,2.16,2.16,0,0,0-.24-.35c.09-.1.2-.19.29-.18.29,0,.63,0,.12-.55-.31-.33-.48-.12-.42.18a.6.6,0,0,1-.14.39,2.31,2.31,0,0,0-.84-.55c0-.16.11-.41.25-.47s.57-.25-.11-.54c-.41-.18-.49.08-.31.33s0,.43,0,.6a2.1,2.1,0,0,0-.56-.08,1.69,1.69,0,0,1,0-.52c.08-.19.15-.28-.17-.2s-.16.12,0,.22a1.11,1.11,0,0,1,.1.5,3.25,3.25,0,0,0-.44,0,.34.34,0,0,1,0-.28c.15-.25.3-.55-.42-.37-.44.11-.35.37-.05.45a.52.52,0,0,1,.23.25,2.22,2.22,0,0,0-.48.2,2.83,2.83,0,0,0-.47.34.29.29,0,0,1-.06-.19c0-.29,0-.62-.54-.14-.35.29-.15.47.15.42a.5.5,0,0,1,.28.1,2.15,2.15,0,0,0-.33.46.91.91,0,0,1-.22-.22c-.07-.14-.08-.22-.2,0s0,.16.11.14.18.07.28.14a3.12,3.12,0,0,0-.15.43.37.37,0,0,1-.23-.13c-.15-.24-.35-.51-.51.22-.1.44.18.47.38.24a.54.54,0,0,1,.31-.09,2.16,2.16,0,0,0,0,.76.53.53,0,0,1-.4,0c-.22-.18-.5-.37-.42.37.06.45.32.39.45.11.05-.12.24-.2.41-.26a1.91,1.91,0,0,0,.19.5,1,1,0,0,1-.3.13c-.16,0-.24,0-.07.19s.13.06.16-.05.13-.14.23-.21a2.62,2.62,0,0,0,.24.34c-.1.12-.23.25-.35.24-.29,0-.62,0-.1.55.32.32.49.11.42-.19a.69.69,0,0,1,.17-.45,2.35,2.35,0,0,0,.9.59c0,.1-.09.21-.16.24-.27.12-.56.29.14.54.43.15.49-.11.29-.35a.56.56,0,0,1,0-.36,2.63,2.63,0,0,0,.49.07,1.14,1.14,0,0,1-.06.37c-.09.18-.17.26.16.21s.16-.11,0-.22a.75.75,0,0,1-.06-.36,2.61,2.61,0,0,0,.48,0,.33.33,0,0,1,0,.27c-.14.26-.26.57.45.34.42-.14.31-.39,0-.46-.08,0-.16-.11-.23-.21a1.72,1.72,0,0,0,.42-.18,2.2,2.2,0,0,0,.25-.17.38.38,0,0,1,.09.27c-.07.28-.12.62.51.22.38-.23.22-.45-.09-.44a.55.55,0,0,1-.32-.19,2.53,2.53,0,0,0,.6-.85c.13,0,.27.1.31.2.11.26.28.55.54-.14.16-.43-.11-.49-.35-.3a.65.65,0,0,1-.43,0,2.08,2.08,0,0,0,.11-.48,1,1,0,0,1,.38.1c.16.12.24.2.23-.13s-.09-.17-.21-.08a.79.79,0,0,1-.39,0,2.13,2.13,0,0,0,0-.5A.41.41,0,0,1,232.6,78.16Z" style="fill:#407BFF"></path><path d="M247.55,105.74c.14.12.33.25.28-.24,0-.3-.2-.26-.29-.08a.4.4,0,0,1-.22.14,1.56,1.56,0,0,0-.15-.39,1.19,1.19,0,0,0-.16-.23c.06-.07.13-.13.2-.12s.42,0,.08-.37-.33-.08-.28.12a.43.43,0,0,1-.1.26,1.61,1.61,0,0,0-.56-.37c0-.1.08-.27.17-.3s.38-.17-.07-.37c-.28-.12-.33,0-.21.22a.56.56,0,0,1,0,.4,1.5,1.5,0,0,0-.37,0,1.86,1.86,0,0,1,0-.35c.06-.12.11-.18-.11-.13s-.1.08,0,.14a.9.9,0,0,1,.06.34l-.29,0a.25.25,0,0,1,0-.19c.1-.16.2-.37-.29-.24-.29.07-.22.24,0,.3a.33.33,0,0,1,.16.17,1.51,1.51,0,0,0-.33.13,1.33,1.33,0,0,0-.3.23.27.27,0,0,1-.05-.13c0-.2,0-.42-.36-.1s-.1.32.1.29a.3.3,0,0,1,.19.06,1.73,1.73,0,0,0-.22.31.7.7,0,0,1-.15-.15c0-.09-.05-.15-.13,0s0,.1.07.09a.5.5,0,0,1,.19.1,2.31,2.31,0,0,0-.1.28.24.24,0,0,1-.15-.08c-.1-.16-.24-.34-.34.15-.07.29.11.31.25.16a.33.33,0,0,1,.21-.07,1.46,1.46,0,0,0,0,.51.29.29,0,0,1-.26,0c-.15-.12-.34-.25-.28.24,0,.3.21.26.29.08a.46.46,0,0,1,.28-.17,2.19,2.19,0,0,0,.12.33l-.19.09c-.11,0-.16,0-.05.12s.09,0,.11,0,.08-.09.15-.14a1.77,1.77,0,0,0,.16.22c-.06.08-.15.17-.23.17s-.42,0-.07.36.33.08.28-.12a.48.48,0,0,1,.11-.3,1.68,1.68,0,0,0,.6.39c0,.07-.05.14-.1.16s-.37.19.09.36c.29.1.33-.08.2-.23a.38.38,0,0,1,0-.25,1.26,1.26,0,0,0,.33,0,1.08,1.08,0,0,1,0,.25c-.06.12-.11.17.1.14s.11-.07,0-.14a.49.49,0,0,1,0-.25,1.73,1.73,0,0,0,.32,0c0,.07,0,.13,0,.18s-.17.38.3.23c.29-.1.21-.26,0-.31s-.11-.07-.16-.14a1.48,1.48,0,0,0,.29-.12c.06,0,.11-.08.16-.11s.08.12.06.18-.08.41.34.15c.26-.16.15-.31-.06-.3a.38.38,0,0,1-.21-.13,1.56,1.56,0,0,0,.4-.56.29.29,0,0,1,.21.13c.07.17.18.37.36-.1.1-.28-.08-.32-.23-.2a.44.44,0,0,1-.29,0,2.06,2.06,0,0,0,.07-.32.65.65,0,0,1,.25.06c.11.08.16.14.16-.08s-.06-.12-.14,0a.59.59,0,0,1-.27,0,1.22,1.22,0,0,0,0-.33A.26.26,0,0,1,247.55,105.74Z" style="fill:#407BFF"></path><path d="M274.05,90.41c.11.1.24.19.21-.18s-.15-.19-.22,0a.28.28,0,0,1-.16.1,1.45,1.45,0,0,0-.11-.29l-.12-.17a.22.22,0,0,1,.15-.09c.14,0,.31,0,.05-.27s-.24-.06-.21.08,0,.13-.07.2a1.25,1.25,0,0,0-.41-.28c0-.07,0-.2.12-.23s.29-.12,0-.27-.25,0-.16.17,0,.21,0,.3a1.28,1.28,0,0,0-.27-.05.69.69,0,0,1,0-.25c0-.1.08-.14-.08-.1s-.08.06,0,.11,0,.15.05.24l-.22,0a.22.22,0,0,1,0-.14c.08-.12.15-.27-.21-.18s-.17.18,0,.22a.29.29,0,0,1,.11.13.82.82,0,0,0-.24.1.91.91,0,0,0-.23.17.22.22,0,0,1,0-.1c0-.14,0-.31-.27-.07s-.07.24.08.21a.18.18,0,0,1,.13.05.91.91,0,0,0-.15.23.68.68,0,0,1-.12-.11c0-.07,0-.11-.1,0s0,.08.06.07.09,0,.14.07a1.8,1.8,0,0,0-.08.21.2.2,0,0,1-.11-.06c-.08-.12-.18-.26-.25.11-.05.21.08.23.19.12a.18.18,0,0,1,.15-.05,1.21,1.21,0,0,0,0,.38.3.3,0,0,1-.19,0c-.12-.09-.25-.19-.21.18,0,.22.16.19.22,0s.12-.1.2-.12a.82.82,0,0,0,.1.24.61.61,0,0,1-.15.07c-.08,0-.12,0,0,.09s.07,0,.08,0,.07-.07.12-.1a.61.61,0,0,0,.12.16c-.05.06-.12.13-.18.12s-.3,0-.05.28.25,0,.21-.1,0-.15.09-.22a1.17,1.17,0,0,0,.44.29.17.17,0,0,1-.08.12c-.13.06-.27.14.07.27s.25-.06.15-.17a.36.36,0,0,1,0-.19,1,1,0,0,0,.24,0,.44.44,0,0,1,0,.18c-.05.09-.09.13.08.11s.08-.06,0-.11a.36.36,0,0,1,0-.18,1,1,0,0,0,.24,0,.18.18,0,0,1,0,.14c-.07.13-.13.28.22.17s.16-.2,0-.23a.27.27,0,0,1-.12-.1l.21-.09.13-.09a.2.2,0,0,1,0,.14c0,.14-.06.3.25.11s.11-.23,0-.22a.28.28,0,0,1-.16-.1,1.25,1.25,0,0,0,.3-.42c.06,0,.13,0,.15.1s.14.27.27-.07-.05-.24-.17-.15a.3.3,0,0,1-.21,0,1.55,1.55,0,0,0,.05-.23.48.48,0,0,1,.19,0c.08.06.11.1.11-.07s0-.08-.1,0a.4.4,0,0,1-.2,0,1,1,0,0,0,0-.25A.19.19,0,0,1,274.05,90.41Z" style="fill:#407BFF"></path><path d="M269.83,78c.1.09.24.19.21-.18s-.16-.2-.22-.06-.1.08-.17.11a1,1,0,0,0-.1-.29l-.12-.18a.2.2,0,0,1,.14-.09c.15,0,.31,0,.06-.27s-.24-.06-.21.09a.27.27,0,0,1-.07.19,1.17,1.17,0,0,0-.42-.27c0-.08.06-.2.13-.23s.29-.12-.05-.27-.25,0-.16.16,0,.22,0,.3a1.26,1.26,0,0,0-.28,0,1.06,1.06,0,0,1,0-.26c0-.09.08-.13-.08-.1s-.08.06,0,.11a.68.68,0,0,1,0,.25l-.22,0a.17.17,0,0,1,0-.14c.07-.13.15-.28-.21-.18s-.17.18,0,.22.08.07.11.12l-.24.1a1.37,1.37,0,0,0-.23.17s0-.06,0-.09,0-.31-.27-.08-.07.24.08.22a.18.18,0,0,1,.13,0,1.88,1.88,0,0,0-.16.23.38.38,0,0,1-.11-.11c0-.07,0-.11-.1,0s0,.07.06.06l.14.07a1.8,1.8,0,0,0-.08.21c-.05,0-.09,0-.11-.06s-.18-.25-.26.11.09.23.19.12a.34.34,0,0,1,.16,0,1.21,1.21,0,0,0,0,.38.23.23,0,0,1-.2,0c-.11-.09-.25-.18-.2.19s.15.19.22.05.12-.1.2-.13a1.06,1.06,0,0,0,.09.25l-.14.07c-.08,0-.12,0,0,.09s.07,0,.08,0a.46.46,0,0,1,.12-.1,1,1,0,0,0,.11.17.25.25,0,0,1-.17.12c-.14,0-.31,0-.05.27s.24.06.21-.09,0-.15.08-.23a1.09,1.09,0,0,0,.45.29c0,.06,0,.11-.08.13s-.28.14.07.26.24,0,.15-.17a.26.26,0,0,1,0-.18,1,1,0,0,0,.24,0,.78.78,0,0,1,0,.19c-.05.09-.09.13.07.1s.09,0,0-.1a.41.41,0,0,1,0-.19,1,1,0,0,0,.24,0,.17.17,0,0,1,0,.14c-.07.12-.13.28.22.16s.15-.19,0-.22-.08-.06-.12-.11a1,1,0,0,0,.21-.09.91.91,0,0,0,.13-.08s.05.09,0,.13-.06.31.25.11.11-.22,0-.22a.26.26,0,0,1-.16-.09,1.1,1.1,0,0,0,.29-.42.27.27,0,0,1,.16.09c.06.13.14.28.27-.07s-.06-.24-.17-.14a.39.39,0,0,1-.22,0,.69.69,0,0,0,.05-.24.56.56,0,0,1,.19.05c.09.06.12.1.12-.06s-.05-.09-.11,0-.11,0-.19,0a2,2,0,0,0,0-.25A.19.19,0,0,1,269.83,78Z" style="fill:#407BFF"></path><path d="M252.69,73.82c.22.19.49.38.42-.36,0-.45-.3-.39-.43-.12a.58.58,0,0,1-.34.22,2.19,2.19,0,0,0-.21-.59,3.07,3.07,0,0,0-.24-.35.49.49,0,0,1,.29-.18c.29,0,.63,0,.12-.54-.31-.33-.49-.13-.42.17a.67.67,0,0,1-.14.39,2.55,2.55,0,0,0-.84-.55c0-.16.11-.41.25-.46s.57-.25-.11-.55c-.41-.18-.49.08-.32.33s0,.44,0,.61a2.11,2.11,0,0,0-.56-.09,1.43,1.43,0,0,1,0-.52c.08-.18.15-.27-.17-.2s-.16.12,0,.22a1.14,1.14,0,0,1,.1.5,2.12,2.12,0,0,0-.44,0,.36.36,0,0,1,0-.29c.15-.25.29-.55-.43-.36-.43.11-.34.36,0,.45.08,0,.16.13.23.25a2.3,2.3,0,0,0-.49.2,2.19,2.19,0,0,0-.46.34.4.4,0,0,1-.07-.2c0-.28,0-.62-.54-.14-.34.29-.14.48.16.43a.44.44,0,0,1,.27.09,3.46,3.46,0,0,0-.32.46.89.89,0,0,1-.22-.21c-.07-.14-.09-.23-.2,0s0,.15.11.13.17.07.28.15a1.9,1.9,0,0,0-.15.42.36.36,0,0,1-.23-.12c-.15-.25-.36-.51-.51.22-.1.44.17.46.38.24a.46.46,0,0,1,.31-.1,2.49,2.49,0,0,0,0,.77.5.5,0,0,1-.39,0c-.23-.18-.51-.37-.42.37.05.45.32.39.44.11a.7.7,0,0,1,.42-.25,2.22,2.22,0,0,0,.18.49,1.23,1.23,0,0,1-.29.14c-.16,0-.24,0-.08.18s.14.07.17,0,.12-.13.23-.2a2.75,2.75,0,0,0,.23.33c-.09.12-.22.25-.34.25-.29,0-.62,0-.1.55.32.32.49.11.41-.19,0-.13.08-.31.18-.45a2.33,2.33,0,0,0,.9.58.43.43,0,0,1-.17.25c-.26.12-.55.28.15.53.42.16.49-.11.29-.34a.61.61,0,0,1,0-.37,2.65,2.65,0,0,0,.48.07,1,1,0,0,1-.05.38c-.09.17-.17.26.16.2s.16-.1,0-.21a.77.77,0,0,1-.06-.37,2.61,2.61,0,0,0,.48,0,.46.46,0,0,1,0,.28c-.14.25-.26.56.44.33.43-.14.32-.39,0-.45a.57.57,0,0,1-.24-.21,2.35,2.35,0,0,0,.43-.19,1.38,1.38,0,0,0,.25-.17.42.42,0,0,1,.09.28c-.08.28-.13.61.51.22.38-.24.21-.45-.09-.45-.1,0-.22-.09-.33-.19a2.17,2.17,0,0,0,.6-.84c.14,0,.27.09.31.19.12.27.28.56.54-.14.16-.42-.1-.49-.34-.3a.6.6,0,0,1-.43,0,2.77,2.77,0,0,0,.11-.48,1.28,1.28,0,0,1,.38.1c.16.12.23.21.23-.12s-.09-.18-.21-.08a1,1,0,0,1-.4,0,2.75,2.75,0,0,0,0-.5A.37.37,0,0,1,252.69,73.82Z" style="fill:#407BFF"></path><path d="M221.28,86.9a.59.59,0,0,1,0,.39,3.15,3.15,0,0,0-.51-.28,2.47,2.47,0,0,0-.36-.11.44.44,0,0,1,.21-.29c.32-.15.69-.35-.18-.67-.52-.2-.6.13-.37.43a.65.65,0,0,1,.07.46,3,3,0,0,0-1.29.06.62.62,0,0,1-.05-.45c.17-.32.34-.7-.54-.42-.54.16-.4.47,0,.56.14,0,.27.21.37.38a3.94,3.94,0,0,0-.55.26,1.56,1.56,0,0,1-.19-.45c0-.25,0-.38-.29-.12s-.11.22.08.26.2.2.31.38a2.67,2.67,0,0,0-.48.41.52.52,0,0,1-.18-.33c0-.36,0-.77-.68-.14-.4.38-.15.6.22.52a.72.72,0,0,1,.47.15,3,3,0,0,0-.41.67,2.91,2.91,0,0,0-.16.5.51.51,0,0,1-.4-.16c-.21-.29-.48-.6-.62.31-.09.55.25.56.49.27a.84.84,0,0,1,.49-.16,2.92,2.92,0,0,0,.1,1.25c-.18.08-.48.2-.64.1s-.68-.37-.45.52c.14.54.45.42.56.06.06-.19.41-.36.6-.44a3.42,3.42,0,0,0,.35.61,2.11,2.11,0,0,1-.52.38c-.25,0-.39,0-.07.31s.24.06.25-.13.24-.32.41-.48a2.46,2.46,0,0,0,.38.41.53.53,0,0,1-.29.22c-.36,0-.76.12,0,.69.44.34.61,0,.47-.3a.65.65,0,0,1,.06-.42,3.2,3.2,0,0,0,.57.32,2.54,2.54,0,0,0,.69.19.35.35,0,0,1-.14.22c-.3.19-.63.44.27.63.55.12.58-.22.3-.47a.55.55,0,0,1-.12-.34,3.25,3.25,0,0,0,.7,0,1.21,1.21,0,0,1,0,.38c-.09.18-.16.26.15.2s.16-.11,0-.21a.73.73,0,0,1-.07-.39,3.27,3.27,0,0,0,.53-.17.45.45,0,0,1,.05.31c-.12.34-.23.74.6.34.51-.25.32-.53-.05-.56a.63.63,0,0,1-.34-.23,2.83,2.83,0,0,0,.75-.59c.14.12.28.27.28.41,0,.36,0,.77.68.12.4-.39.13-.6-.23-.51a.88.88,0,0,1-.57-.21,2.46,2.46,0,0,0,.34-.56,1,1,0,0,1,.36.19c.13.14.18.24.24-.07s0-.19-.18-.12a1,1,0,0,1-.37-.08,4.42,4.42,0,0,0,.15-.48.65.65,0,0,1,.5.15c.21.29.49.59.61-.32.07-.56-.26-.56-.5-.26a.94.94,0,0,1-.57.18,3,3,0,0,0-.12-1.34.53.53,0,0,1,.37,0c.31.17.7.32.41-.55-.17-.53-.48-.39-.56,0a.69.69,0,0,1-.31.33A4.07,4.07,0,0,0,222,88a1.16,1.16,0,0,1,.41-.23c.24,0,.38,0,.08-.31s-.23-.08-.25.11-.16.22-.31.34a3.51,3.51,0,0,0-.42-.44.45.45,0,0,1,.26-.22c.35-.06.75-.18,0-.69C221.27,86.26,221.12,86.56,221.28,86.9Z" style="fill:#407BFF"></path><path d="M229.5,92.12c.21-.1.44-.25-.13-.43-.35-.11-.4.1-.23.29a.48.48,0,0,1,.05.31,1.67,1.67,0,0,0-.5,0,1.86,1.86,0,0,0-.34.07.42.42,0,0,1,0-.28c.1-.21.2-.47-.37-.26-.34.12-.24.32,0,.37.09,0,.18.12.25.23a1.84,1.84,0,0,0-.68.45c-.11-.08-.27-.22-.26-.34s0-.5-.44-.09c-.27.25-.1.39.14.34s.33.11.44.2a2.55,2.55,0,0,0-.24.39,1.5,1.5,0,0,1-.38-.18c-.11-.12-.15-.2-.2.06s0,.16.15.1a1,1,0,0,1,.41.09,2,2,0,0,0-.12.34.41.41,0,0,1-.21-.09c-.14-.19-.31-.4-.4.19-.06.36.16.37.32.18s.15-.08.26-.09a1.48,1.48,0,0,0,0,.42,1.35,1.35,0,0,0,.11.45.19.19,0,0,1-.17,0c-.2-.11-.45-.22-.28.36.11.35.31.26.37,0a.43.43,0,0,1,.16-.18,1.58,1.58,0,0,0,.24.39.72.72,0,0,1-.24.1c-.12,0-.19,0-.06.15s.11,0,.14,0,.11-.11.2-.17a1.54,1.54,0,0,0,.26.25.27.27,0,0,1-.16.13c-.23,0-.5.1,0,.45.29.21.4,0,.3-.21a.4.4,0,0,1,0-.26,2,2,0,0,0,.57.24c0,.12-.06.25-.14.29s-.43.26.14.43c.35.1.39-.12.22-.3a.55.55,0,0,1-.05-.39,1.94,1.94,0,0,0,.42,0,.59.59,0,0,1,0,.26c0,.12-.08.18.11.12s.09-.08,0-.14-.06-.14-.08-.24a3,3,0,0,0,.32-.06.42.42,0,0,1,.08.33c-.1.21-.19.47.37.25.34-.14.24-.33,0-.37-.1,0-.2-.15-.28-.27a2,2,0,0,0,.72-.48.31.31,0,0,1,.13.19c0,.24,0,.51.45.07.25-.27.07-.4-.17-.33a.46.46,0,0,1-.29-.08,1.85,1.85,0,0,0,.21-.33.85.85,0,0,1,.26.15c.1.13.14.21.21,0s0-.15-.15-.11a.66.66,0,0,1-.29-.06,2.4,2.4,0,0,0,.12-.38c.08,0,.17,0,.21.08s.33.37.39-.23c0-.36-.19-.36-.34-.16a.36.36,0,0,1-.23.11,1.15,1.15,0,0,0,0-.37.93.93,0,0,0,0-.24.32.32,0,0,1,.24,0c.18.14.41.29.32-.31-.05-.36-.26-.3-.36-.07a.47.47,0,0,1-.24.18,1.89,1.89,0,0,0-.44-.72c.07-.08.16-.17.24-.17.24,0,.51,0,.07-.44-.26-.25-.4-.08-.33.16a.45.45,0,0,1-.1.33l-.32-.23a1.15,1.15,0,0,1,.19-.25c.14-.08.23-.11,0-.21s-.16,0-.12.13a.86.86,0,0,1-.12.3,1.74,1.74,0,0,0-.38-.14C229.4,92.24,229.43,92.15,229.5,92.12Z" style="fill:#407BFF"></path><path d="M241,86.83c.21-.1.44-.24-.13-.43-.35-.11-.39.11-.23.29a.48.48,0,0,1,.06.31,2.16,2.16,0,0,0-.51,0,1.94,1.94,0,0,0-.33.07.33.33,0,0,1,0-.28c.1-.21.19-.46-.37-.26-.34.13-.25.32,0,.37a.52.52,0,0,1,.24.23,1.84,1.84,0,0,0-.68.45c-.1-.08-.26-.21-.26-.34s0-.5-.44-.09c-.26.25-.1.39.15.34s.33.12.44.21a1.63,1.63,0,0,0-.24.38,1,1,0,0,1-.38-.18c-.11-.12-.15-.19-.2.07s0,.15.15.1a.89.89,0,0,1,.4.08,1.93,1.93,0,0,0-.11.34.34.34,0,0,1-.22-.09c-.13-.19-.31-.4-.4.2-.06.36.16.37.32.18a.39.39,0,0,1,.26-.1,2,2,0,0,0,0,.43,2.46,2.46,0,0,0,.11.45.28.28,0,0,1-.16,0c-.21-.12-.46-.22-.28.35.1.35.31.26.36,0a.42.42,0,0,1,.16-.17,2,2,0,0,0,.24.38.61.61,0,0,1-.23.1c-.13,0-.19,0-.06.15s.11,0,.13,0,.11-.11.2-.16a2,2,0,0,0,.26.24.25.25,0,0,1-.16.13c-.23,0-.49.11,0,.45.3.21.4,0,.3-.2a.44.44,0,0,1,0-.27,1.61,1.61,0,0,0,.57.24c0,.12-.06.25-.15.29s-.43.26.15.43c.35.1.39-.12.22-.3a.56.56,0,0,1-.06-.38,2,2,0,0,0,.43,0,.75.75,0,0,1,0,.26c0,.12-.08.17.12.11s.09-.08,0-.14a.54.54,0,0,1-.08-.24,1.75,1.75,0,0,0,.33-.06.42.42,0,0,1,.07.33c-.1.21-.18.47.38.25.33-.13.23-.33,0-.37s-.21-.15-.28-.27a1.94,1.94,0,0,0,.72-.48.41.41,0,0,1,.13.2c0,.23,0,.5.44.06.25-.27.07-.4-.16-.33a.42.42,0,0,1-.29-.07,1.68,1.68,0,0,0,.2-.34.91.91,0,0,1,.27.16c.1.12.14.21.2,0s0-.16-.14-.11a.72.72,0,0,1-.3-.07,1.68,1.68,0,0,0,.12-.38.31.31,0,0,1,.21.08c.15.18.34.37.39-.23,0-.36-.19-.35-.33-.15a.49.49,0,0,1-.23.11,2.41,2.41,0,0,0,0-.38,2,2,0,0,0-.05-.24c.09,0,.18,0,.23,0s.42.28.33-.31c-.06-.36-.27-.31-.36-.08s-.14.13-.25.18a1.91,1.91,0,0,0-.43-.71c.07-.09.15-.17.24-.17s.5,0,.06-.45c-.26-.25-.39-.07-.33.16a.48.48,0,0,1-.1.34,1.44,1.44,0,0,0-.32-.23.8.8,0,0,1,.2-.25c.14-.09.22-.11,0-.21s-.16,0-.13.13a.67.67,0,0,1-.12.29,2.13,2.13,0,0,0-.38-.14A.36.36,0,0,1,241,86.83Z" style="fill:#407BFF"></path></g></svg>